<mxfile host="app.diagrams.net" modified="2023-06-08T22:34:57.516Z" agent="Mozilla/5.0 (X11; Ubuntu; Linux x86_64; rv:109.0) Gecko/20100101 Firefox/113.0" etag="8Q0M5hzETCB7eW_-0Oy_" version="21.3.8" type="device">
  <diagram id="vDqjUoAuHQiaoz7LTiOU" name="AlmacénMary">
    <mxGraphModel dx="1257" dy="601" grid="1" gridSize="10" guides="1" tooltips="1" connect="1" arrows="1" fold="1" page="1" pageScale="1" pageWidth="827" pageHeight="1169" math="0" shadow="0">
      <root>
        <mxCell id="0" />
        <mxCell id="1" parent="0" />
        <mxCell id="lYTeRvdv8kLkkW_NQM2Z-179" style="edgeStyle=orthogonalEdgeStyle;rounded=0;orthogonalLoop=1;jettySize=auto;html=1;entryX=0;entryY=0.5;entryDx=0;entryDy=0;endArrow=none;endFill=0;" parent="1" source="lYTeRvdv8kLkkW_NQM2Z-133" target="lYTeRvdv8kLkkW_NQM2Z-173" edge="1">
          <mxGeometry relative="1" as="geometry" />
        </mxCell>
        <mxCell id="lYTeRvdv8kLkkW_NQM2Z-203" style="edgeStyle=orthogonalEdgeStyle;rounded=0;orthogonalLoop=1;jettySize=auto;html=1;entryX=1;entryY=0.5;entryDx=0;entryDy=0;endArrow=none;endFill=0;" parent="1" source="lYTeRvdv8kLkkW_NQM2Z-133" target="lYTeRvdv8kLkkW_NQM2Z-162" edge="1">
          <mxGeometry relative="1" as="geometry">
            <Array as="points">
              <mxPoint x="680" y="560" />
            </Array>
          </mxGeometry>
        </mxCell>
        <mxCell id="lYTeRvdv8kLkkW_NQM2Z-204" style="edgeStyle=orthogonalEdgeStyle;rounded=0;orthogonalLoop=1;jettySize=auto;html=1;entryX=0;entryY=0.5;entryDx=0;entryDy=0;endArrow=none;endFill=0;" parent="1" source="lYTeRvdv8kLkkW_NQM2Z-133" target="lYTeRvdv8kLkkW_NQM2Z-161" edge="1">
          <mxGeometry relative="1" as="geometry">
            <Array as="points">
              <mxPoint x="710" y="560" />
            </Array>
          </mxGeometry>
        </mxCell>
        <mxCell id="lYTeRvdv8kLkkW_NQM2Z-261" style="edgeStyle=orthogonalEdgeStyle;rounded=0;orthogonalLoop=1;jettySize=auto;html=1;entryX=1;entryY=0.5;entryDx=0;entryDy=0;endArrow=none;endFill=0;" parent="1" source="lYTeRvdv8kLkkW_NQM2Z-133" target="lYTeRvdv8kLkkW_NQM2Z-160" edge="1">
          <mxGeometry relative="1" as="geometry">
            <Array as="points">
              <mxPoint x="710" y="680" />
            </Array>
          </mxGeometry>
        </mxCell>
        <mxCell id="lYTeRvdv8kLkkW_NQM2Z-262" style="edgeStyle=orthogonalEdgeStyle;rounded=0;orthogonalLoop=1;jettySize=auto;html=1;entryX=0.5;entryY=1;entryDx=0;entryDy=0;endArrow=none;endFill=0;" parent="1" source="lYTeRvdv8kLkkW_NQM2Z-133" target="lYTeRvdv8kLkkW_NQM2Z-260" edge="1">
          <mxGeometry relative="1" as="geometry" />
        </mxCell>
        <mxCell id="lYTeRvdv8kLkkW_NQM2Z-133" value="Aplicación" style="rounded=1;arcSize=10;whiteSpace=wrap;html=1;align=center;" parent="1" vertex="1">
          <mxGeometry x="643" y="600" width="100" height="40" as="geometry" />
        </mxCell>
        <mxCell id="lYTeRvdv8kLkkW_NQM2Z-134" value="Usuario" style="rounded=1;arcSize=10;whiteSpace=wrap;html=1;align=center;" parent="1" vertex="1">
          <mxGeometry x="643" y="820" width="100" height="40" as="geometry" />
        </mxCell>
        <mxCell id="lYTeRvdv8kLkkW_NQM2Z-135" style="edgeStyle=orthogonalEdgeStyle;rounded=0;orthogonalLoop=1;jettySize=auto;html=1;entryX=0.5;entryY=1;entryDx=0;entryDy=0;endArrow=none;endFill=0;" parent="1" source="lYTeRvdv8kLkkW_NQM2Z-141" target="lYTeRvdv8kLkkW_NQM2Z-164" edge="1">
          <mxGeometry relative="1" as="geometry" />
        </mxCell>
        <mxCell id="lYTeRvdv8kLkkW_NQM2Z-136" style="edgeStyle=orthogonalEdgeStyle;rounded=0;orthogonalLoop=1;jettySize=auto;html=1;entryX=1;entryY=0.5;entryDx=0;entryDy=0;endArrow=none;endFill=0;" parent="1" source="lYTeRvdv8kLkkW_NQM2Z-141" target="lYTeRvdv8kLkkW_NQM2Z-156" edge="1">
          <mxGeometry relative="1" as="geometry">
            <Array as="points">
              <mxPoint x="683" y="260" />
            </Array>
          </mxGeometry>
        </mxCell>
        <mxCell id="lYTeRvdv8kLkkW_NQM2Z-137" style="edgeStyle=orthogonalEdgeStyle;rounded=0;orthogonalLoop=1;jettySize=auto;html=1;entryX=0;entryY=0.5;entryDx=0;entryDy=0;endArrow=none;endFill=0;" parent="1" source="lYTeRvdv8kLkkW_NQM2Z-141" target="lYTeRvdv8kLkkW_NQM2Z-157" edge="1">
          <mxGeometry relative="1" as="geometry">
            <Array as="points">
              <mxPoint x="703" y="260" />
            </Array>
          </mxGeometry>
        </mxCell>
        <mxCell id="lYTeRvdv8kLkkW_NQM2Z-138" style="edgeStyle=orthogonalEdgeStyle;rounded=0;orthogonalLoop=1;jettySize=auto;html=1;entryX=1;entryY=0.5;entryDx=0;entryDy=0;endArrow=none;endFill=0;" parent="1" source="lYTeRvdv8kLkkW_NQM2Z-141" target="lYTeRvdv8kLkkW_NQM2Z-155" edge="1">
          <mxGeometry relative="1" as="geometry">
            <Array as="points">
              <mxPoint x="673" y="310" />
            </Array>
          </mxGeometry>
        </mxCell>
        <mxCell id="lYTeRvdv8kLkkW_NQM2Z-140" style="edgeStyle=orthogonalEdgeStyle;rounded=0;orthogonalLoop=1;jettySize=auto;html=1;entryX=0;entryY=0.5;entryDx=0;entryDy=0;endArrow=none;endFill=0;" parent="1" source="lYTeRvdv8kLkkW_NQM2Z-141" target="lYTeRvdv8kLkkW_NQM2Z-172" edge="1">
          <mxGeometry relative="1" as="geometry">
            <Array as="points">
              <mxPoint x="713" y="310" />
            </Array>
          </mxGeometry>
        </mxCell>
        <mxCell id="lYTeRvdv8kLkkW_NQM2Z-258" style="edgeStyle=orthogonalEdgeStyle;rounded=0;orthogonalLoop=1;jettySize=auto;html=1;entryX=1;entryY=0.5;entryDx=0;entryDy=0;endArrow=none;endFill=0;" parent="1" source="lYTeRvdv8kLkkW_NQM2Z-141" target="lYTeRvdv8kLkkW_NQM2Z-169" edge="1">
          <mxGeometry relative="1" as="geometry" />
        </mxCell>
        <mxCell id="lYTeRvdv8kLkkW_NQM2Z-141" value="Producto" style="rounded=1;arcSize=10;whiteSpace=wrap;html=1;align=center;" parent="1" vertex="1">
          <mxGeometry x="643" y="350" width="100" height="40" as="geometry" />
        </mxCell>
        <mxCell id="lYTeRvdv8kLkkW_NQM2Z-142" style="edgeStyle=orthogonalEdgeStyle;rounded=0;orthogonalLoop=1;jettySize=auto;html=1;exitX=1;exitY=0.5;exitDx=0;exitDy=0;entryX=0.317;entryY=1.032;entryDx=0;entryDy=0;entryPerimeter=0;endArrow=none;endFill=0;" parent="1" edge="1">
          <mxGeometry relative="1" as="geometry">
            <mxPoint x="612.0000000000018" y="898.9999999999999" as="sourcePoint" />
            <mxPoint x="673.7" y="860.28" as="targetPoint" />
          </mxGeometry>
        </mxCell>
        <mxCell id="lYTeRvdv8kLkkW_NQM2Z-143" value="ID_Usuario" style="ellipse;whiteSpace=wrap;html=1;align=center;fontStyle=4;" parent="1" vertex="1">
          <mxGeometry x="513" y="880" width="100" height="40" as="geometry" />
        </mxCell>
        <mxCell id="lYTeRvdv8kLkkW_NQM2Z-144" style="edgeStyle=orthogonalEdgeStyle;rounded=0;orthogonalLoop=1;jettySize=auto;html=1;exitX=1;exitY=0.5;exitDx=0;exitDy=0;endArrow=none;endFill=0;" parent="1" source="lYTeRvdv8kLkkW_NQM2Z-145" edge="1">
          <mxGeometry relative="1" as="geometry">
            <mxPoint x="683.0588235294117" y="859.9999999999998" as="targetPoint" />
            <Array as="points">
              <mxPoint x="683" y="910" />
              <mxPoint x="683" y="910" />
            </Array>
          </mxGeometry>
        </mxCell>
        <mxCell id="lYTeRvdv8kLkkW_NQM2Z-145" value="NombreUsuario" style="ellipse;whiteSpace=wrap;html=1;align=center;" parent="1" vertex="1">
          <mxGeometry x="573" y="920" width="100" height="40" as="geometry" />
        </mxCell>
        <mxCell id="lYTeRvdv8kLkkW_NQM2Z-146" style="edgeStyle=orthogonalEdgeStyle;rounded=0;orthogonalLoop=1;jettySize=auto;html=1;exitX=0;exitY=0.5;exitDx=0;exitDy=0;entryX=0.5;entryY=1;entryDx=0;entryDy=0;endArrow=none;endFill=0;" parent="1" source="lYTeRvdv8kLkkW_NQM2Z-147" target="lYTeRvdv8kLkkW_NQM2Z-134" edge="1">
          <mxGeometry relative="1" as="geometry">
            <Array as="points">
              <mxPoint x="693" y="940" />
            </Array>
          </mxGeometry>
        </mxCell>
        <mxCell id="lYTeRvdv8kLkkW_NQM2Z-147" value="ContraseñaUsuario" style="ellipse;whiteSpace=wrap;html=1;align=center;" parent="1" vertex="1">
          <mxGeometry x="703" y="920" width="100" height="40" as="geometry" />
        </mxCell>
        <mxCell id="lYTeRvdv8kLkkW_NQM2Z-148" style="edgeStyle=orthogonalEdgeStyle;rounded=0;orthogonalLoop=1;jettySize=auto;html=1;exitX=0;exitY=0.5;exitDx=0;exitDy=0;entryX=0.6;entryY=1;entryDx=0;entryDy=0;entryPerimeter=0;endArrow=none;endFill=0;" parent="1" source="lYTeRvdv8kLkkW_NQM2Z-149" target="lYTeRvdv8kLkkW_NQM2Z-134" edge="1">
          <mxGeometry relative="1" as="geometry" />
        </mxCell>
        <mxCell id="lYTeRvdv8kLkkW_NQM2Z-149" value="ID_RolUsuario" style="ellipse;whiteSpace=wrap;html=1;align=center;" parent="1" vertex="1">
          <mxGeometry x="773" y="880" width="100" height="40" as="geometry" />
        </mxCell>
        <mxCell id="lYTeRvdv8kLkkW_NQM2Z-150" style="edgeStyle=orthogonalEdgeStyle;rounded=0;orthogonalLoop=1;jettySize=auto;html=1;exitX=0.5;exitY=0;exitDx=0;exitDy=0;entryX=0.5;entryY=1;entryDx=0;entryDy=0;endArrow=none;endFill=0;" parent="1" source="lYTeRvdv8kLkkW_NQM2Z-152" target="lYTeRvdv8kLkkW_NQM2Z-133" edge="1">
          <mxGeometry relative="1" as="geometry" />
        </mxCell>
        <mxCell id="lYTeRvdv8kLkkW_NQM2Z-151" style="edgeStyle=orthogonalEdgeStyle;rounded=0;orthogonalLoop=1;jettySize=auto;html=1;exitX=0.5;exitY=1;exitDx=0;exitDy=0;endArrow=none;endFill=0;" parent="1" source="lYTeRvdv8kLkkW_NQM2Z-152" target="lYTeRvdv8kLkkW_NQM2Z-134" edge="1">
          <mxGeometry relative="1" as="geometry" />
        </mxCell>
        <mxCell id="lYTeRvdv8kLkkW_NQM2Z-152" value="Accede" style="shape=rhombus;perimeter=rhombusPerimeter;whiteSpace=wrap;html=1;align=center;" parent="1" vertex="1">
          <mxGeometry x="633" y="700" width="120" height="60" as="geometry" />
        </mxCell>
        <mxCell id="lYTeRvdv8kLkkW_NQM2Z-155" value="NombreProducto" style="ellipse;whiteSpace=wrap;html=1;align=center;" parent="1" vertex="1">
          <mxGeometry x="548" y="290" width="100" height="40" as="geometry" />
        </mxCell>
        <mxCell id="lYTeRvdv8kLkkW_NQM2Z-156" value="DetalleProducto" style="ellipse;whiteSpace=wrap;html=1;align=center;" parent="1" vertex="1">
          <mxGeometry x="548" y="240" width="100" height="40" as="geometry" />
        </mxCell>
        <mxCell id="lYTeRvdv8kLkkW_NQM2Z-157" value="PrecioUnitario" style="ellipse;whiteSpace=wrap;html=1;align=center;" parent="1" vertex="1">
          <mxGeometry x="738" y="240" width="100" height="40" as="geometry" />
        </mxCell>
        <mxCell id="lYTeRvdv8kLkkW_NQM2Z-159" value="1:n" style="text;html=1;align=center;verticalAlign=middle;resizable=0;points=[];autosize=1;strokeColor=none;fillColor=none;" parent="1" vertex="1">
          <mxGeometry x="593" y="715" width="40" height="30" as="geometry" />
        </mxCell>
        <mxCell id="lYTeRvdv8kLkkW_NQM2Z-160" value="&lt;span style=&quot;border-bottom: 1px dotted&quot;&gt;CódigoProducto&lt;/span&gt;" style="ellipse;whiteSpace=wrap;html=1;align=center;" parent="1" vertex="1">
          <mxGeometry x="743" y="660" width="100" height="40" as="geometry" />
        </mxCell>
        <mxCell id="lYTeRvdv8kLkkW_NQM2Z-161" value="&lt;span style=&quot;border-bottom: 1px dotted&quot;&gt;ID_Factura&lt;/span&gt;" style="ellipse;whiteSpace=wrap;html=1;align=center;" parent="1" vertex="1">
          <mxGeometry x="738" y="540" width="100" height="40" as="geometry" />
        </mxCell>
        <mxCell id="lYTeRvdv8kLkkW_NQM2Z-162" value="&lt;span style=&quot;border-bottom: 1px dotted&quot;&gt;ID_Usuario&lt;/span&gt;" style="ellipse;whiteSpace=wrap;html=1;align=center;" parent="1" vertex="1">
          <mxGeometry x="543" y="540" width="100" height="40" as="geometry" />
        </mxCell>
        <mxCell id="lYTeRvdv8kLkkW_NQM2Z-163" value="0 = Admin&lt;br&gt;1 = Usuario" style="text;html=1;strokeColor=none;fillColor=none;align=center;verticalAlign=middle;whiteSpace=wrap;rounded=0;" parent="1" vertex="1">
          <mxGeometry x="773" y="850" width="100" height="30" as="geometry" />
        </mxCell>
        <mxCell id="lYTeRvdv8kLkkW_NQM2Z-164" value="&lt;u&gt;CódigoProducto&lt;/u&gt;" style="ellipse;whiteSpace=wrap;html=1;align=center;" parent="1" vertex="1">
          <mxGeometry x="643" y="170" width="100" height="40" as="geometry" />
        </mxCell>
        <mxCell id="lYTeRvdv8kLkkW_NQM2Z-165" style="edgeStyle=orthogonalEdgeStyle;rounded=0;orthogonalLoop=1;jettySize=auto;html=1;entryX=0;entryY=0.5;entryDx=0;entryDy=0;endArrow=none;endFill=0;" parent="1" source="lYTeRvdv8kLkkW_NQM2Z-167" target="lYTeRvdv8kLkkW_NQM2Z-171" edge="1">
          <mxGeometry relative="1" as="geometry">
            <Array as="points">
              <mxPoint x="261.5" y="310" />
            </Array>
          </mxGeometry>
        </mxCell>
        <mxCell id="lYTeRvdv8kLkkW_NQM2Z-166" style="edgeStyle=orthogonalEdgeStyle;rounded=0;orthogonalLoop=1;jettySize=auto;html=1;entryX=1;entryY=0.5;entryDx=0;entryDy=0;endArrow=none;endFill=0;" parent="1" source="lYTeRvdv8kLkkW_NQM2Z-167" target="lYTeRvdv8kLkkW_NQM2Z-170" edge="1">
          <mxGeometry relative="1" as="geometry">
            <Array as="points">
              <mxPoint x="241.5" y="310" />
            </Array>
          </mxGeometry>
        </mxCell>
        <mxCell id="lYTeRvdv8kLkkW_NQM2Z-167" value="Categoría" style="rounded=1;arcSize=10;whiteSpace=wrap;html=1;align=center;" parent="1" vertex="1">
          <mxGeometry x="201.5" y="350" width="100" height="40" as="geometry" />
        </mxCell>
        <mxCell id="lYTeRvdv8kLkkW_NQM2Z-259" style="edgeStyle=orthogonalEdgeStyle;rounded=0;orthogonalLoop=1;jettySize=auto;html=1;entryX=1;entryY=0.5;entryDx=0;entryDy=0;endArrow=none;endFill=0;" parent="1" source="lYTeRvdv8kLkkW_NQM2Z-169" target="lYTeRvdv8kLkkW_NQM2Z-167" edge="1">
          <mxGeometry relative="1" as="geometry" />
        </mxCell>
        <mxCell id="lYTeRvdv8kLkkW_NQM2Z-169" value="Pertenece" style="shape=rhombus;perimeter=rhombusPerimeter;whiteSpace=wrap;html=1;align=center;" parent="1" vertex="1">
          <mxGeometry x="410" y="340" width="120" height="60" as="geometry" />
        </mxCell>
        <mxCell id="lYTeRvdv8kLkkW_NQM2Z-170" value="NombreCategoria" style="ellipse;whiteSpace=wrap;html=1;align=center;" parent="1" vertex="1">
          <mxGeometry x="118.5" y="290" width="100" height="40" as="geometry" />
        </mxCell>
        <mxCell id="lYTeRvdv8kLkkW_NQM2Z-171" value="&lt;u&gt;ID_Categoría&lt;/u&gt;" style="ellipse;whiteSpace=wrap;html=1;align=center;" parent="1" vertex="1">
          <mxGeometry x="281.5" y="290" width="100" height="40" as="geometry" />
        </mxCell>
        <mxCell id="lYTeRvdv8kLkkW_NQM2Z-172" value="&lt;span style=&quot;border-bottom: 1px dotted&quot;&gt;ID_Categoría&lt;/span&gt;" style="ellipse;whiteSpace=wrap;html=1;align=center;" parent="1" vertex="1">
          <mxGeometry x="738" y="290" width="100" height="40" as="geometry" />
        </mxCell>
        <mxCell id="lYTeRvdv8kLkkW_NQM2Z-180" style="edgeStyle=orthogonalEdgeStyle;rounded=0;orthogonalLoop=1;jettySize=auto;html=1;entryX=0;entryY=0.5;entryDx=0;entryDy=0;endArrow=none;endFill=0;" parent="1" source="lYTeRvdv8kLkkW_NQM2Z-173" target="lYTeRvdv8kLkkW_NQM2Z-175" edge="1">
          <mxGeometry relative="1" as="geometry" />
        </mxCell>
        <mxCell id="lYTeRvdv8kLkkW_NQM2Z-173" value="Produce" style="shape=rhombus;perimeter=rhombusPerimeter;whiteSpace=wrap;html=1;align=center;" parent="1" vertex="1">
          <mxGeometry x="838" y="590" width="120" height="60" as="geometry" />
        </mxCell>
        <mxCell id="lYTeRvdv8kLkkW_NQM2Z-183" style="edgeStyle=orthogonalEdgeStyle;rounded=0;orthogonalLoop=1;jettySize=auto;html=1;entryX=0.5;entryY=0;entryDx=0;entryDy=0;endArrow=none;endFill=0;" parent="1" source="lYTeRvdv8kLkkW_NQM2Z-175" target="lYTeRvdv8kLkkW_NQM2Z-182" edge="1">
          <mxGeometry relative="1" as="geometry" />
        </mxCell>
        <mxCell id="lYTeRvdv8kLkkW_NQM2Z-222" style="edgeStyle=orthogonalEdgeStyle;rounded=0;orthogonalLoop=1;jettySize=auto;html=1;entryX=1;entryY=0.5;entryDx=0;entryDy=0;endArrow=none;endFill=0;" parent="1" source="lYTeRvdv8kLkkW_NQM2Z-175" target="lYTeRvdv8kLkkW_NQM2Z-218" edge="1">
          <mxGeometry relative="1" as="geometry">
            <Array as="points">
              <mxPoint x="1080" y="470" />
            </Array>
          </mxGeometry>
        </mxCell>
        <mxCell id="lYTeRvdv8kLkkW_NQM2Z-223" style="edgeStyle=orthogonalEdgeStyle;rounded=0;orthogonalLoop=1;jettySize=auto;html=1;entryX=0;entryY=0.5;entryDx=0;entryDy=0;endArrow=none;endFill=0;" parent="1" source="lYTeRvdv8kLkkW_NQM2Z-175" target="lYTeRvdv8kLkkW_NQM2Z-219" edge="1">
          <mxGeometry relative="1" as="geometry">
            <Array as="points">
              <mxPoint x="1110" y="470" />
            </Array>
          </mxGeometry>
        </mxCell>
        <mxCell id="lYTeRvdv8kLkkW_NQM2Z-224" style="edgeStyle=orthogonalEdgeStyle;rounded=0;orthogonalLoop=1;jettySize=auto;html=1;entryX=1;entryY=0.5;entryDx=0;entryDy=0;endArrow=none;endFill=0;" parent="1" source="lYTeRvdv8kLkkW_NQM2Z-175" target="lYTeRvdv8kLkkW_NQM2Z-210" edge="1">
          <mxGeometry relative="1" as="geometry">
            <Array as="points">
              <mxPoint x="1070" y="520" />
            </Array>
          </mxGeometry>
        </mxCell>
        <mxCell id="lYTeRvdv8kLkkW_NQM2Z-225" style="edgeStyle=orthogonalEdgeStyle;rounded=0;orthogonalLoop=1;jettySize=auto;html=1;entryX=0;entryY=0.5;entryDx=0;entryDy=0;endArrow=none;endFill=0;" parent="1" source="lYTeRvdv8kLkkW_NQM2Z-175" target="lYTeRvdv8kLkkW_NQM2Z-217" edge="1">
          <mxGeometry relative="1" as="geometry">
            <Array as="points">
              <mxPoint x="1120" y="520" />
            </Array>
          </mxGeometry>
        </mxCell>
        <mxCell id="lYTeRvdv8kLkkW_NQM2Z-235" style="edgeStyle=orthogonalEdgeStyle;rounded=0;orthogonalLoop=1;jettySize=auto;html=1;entryX=1;entryY=0.5;entryDx=0;entryDy=0;endArrow=none;endFill=0;" parent="1" source="lYTeRvdv8kLkkW_NQM2Z-175" target="lYTeRvdv8kLkkW_NQM2Z-234" edge="1">
          <mxGeometry relative="1" as="geometry">
            <Array as="points">
              <mxPoint x="1090" y="420" />
            </Array>
          </mxGeometry>
        </mxCell>
        <mxCell id="lYTeRvdv8kLkkW_NQM2Z-237" style="edgeStyle=orthogonalEdgeStyle;rounded=0;orthogonalLoop=1;jettySize=auto;html=1;entryX=0.5;entryY=1;entryDx=0;entryDy=0;endArrow=none;endFill=0;" parent="1" source="lYTeRvdv8kLkkW_NQM2Z-175" target="lYTeRvdv8kLkkW_NQM2Z-247" edge="1">
          <mxGeometry relative="1" as="geometry">
            <mxPoint x="1100" y="395" as="targetPoint" />
          </mxGeometry>
        </mxCell>
        <mxCell id="lYTeRvdv8kLkkW_NQM2Z-175" value="Factura" style="rounded=1;arcSize=10;whiteSpace=wrap;html=1;align=center;" parent="1" vertex="1">
          <mxGeometry x="1050" y="600" width="100" height="40" as="geometry" />
        </mxCell>
        <mxCell id="lYTeRvdv8kLkkW_NQM2Z-229" style="edgeStyle=orthogonalEdgeStyle;rounded=0;orthogonalLoop=1;jettySize=auto;html=1;entryX=0.5;entryY=0;entryDx=0;entryDy=0;endArrow=none;endFill=0;" parent="1" source="lYTeRvdv8kLkkW_NQM2Z-182" target="lYTeRvdv8kLkkW_NQM2Z-228" edge="1">
          <mxGeometry relative="1" as="geometry" />
        </mxCell>
        <mxCell id="lYTeRvdv8kLkkW_NQM2Z-182" value="Genera" style="shape=rhombus;perimeter=rhombusPerimeter;whiteSpace=wrap;html=1;align=center;" parent="1" vertex="1">
          <mxGeometry x="1040" y="700" width="120" height="60" as="geometry" />
        </mxCell>
        <mxCell id="lYTeRvdv8kLkkW_NQM2Z-198" style="edgeStyle=orthogonalEdgeStyle;rounded=0;orthogonalLoop=1;jettySize=auto;html=1;entryX=0;entryY=0.5;entryDx=0;entryDy=0;endArrow=none;endFill=0;strokeColor=default;" parent="1" source="lYTeRvdv8kLkkW_NQM2Z-185" target="lYTeRvdv8kLkkW_NQM2Z-187" edge="1">
          <mxGeometry relative="1" as="geometry" />
        </mxCell>
        <mxCell id="lYTeRvdv8kLkkW_NQM2Z-266" style="edgeStyle=orthogonalEdgeStyle;rounded=0;orthogonalLoop=1;jettySize=auto;html=1;entryX=1;entryY=0.5;entryDx=0;entryDy=0;strokeColor=default;endArrow=none;endFill=0;" parent="1" source="lYTeRvdv8kLkkW_NQM2Z-185" target="lYTeRvdv8kLkkW_NQM2Z-256" edge="1">
          <mxGeometry relative="1" as="geometry">
            <Array as="points">
              <mxPoint x="240" y="560" />
            </Array>
          </mxGeometry>
        </mxCell>
        <mxCell id="lYTeRvdv8kLkkW_NQM2Z-267" style="edgeStyle=orthogonalEdgeStyle;rounded=0;orthogonalLoop=1;jettySize=auto;html=1;entryX=0;entryY=0.5;entryDx=0;entryDy=0;strokeColor=default;endArrow=none;endFill=0;" parent="1" source="lYTeRvdv8kLkkW_NQM2Z-185" target="lYTeRvdv8kLkkW_NQM2Z-257" edge="1">
          <mxGeometry relative="1" as="geometry">
            <Array as="points">
              <mxPoint x="260" y="560" />
            </Array>
          </mxGeometry>
        </mxCell>
        <mxCell id="ylq0Wh5do1DhNVSN07a9-79" style="edgeStyle=orthogonalEdgeStyle;rounded=0;orthogonalLoop=1;jettySize=auto;html=1;exitX=0.5;exitY=1;exitDx=0;exitDy=0;entryX=0.5;entryY=0;entryDx=0;entryDy=0;strokeColor=default;endArrow=none;endFill=0;" parent="1" source="lYTeRvdv8kLkkW_NQM2Z-185" target="ylq0Wh5do1DhNVSN07a9-77" edge="1">
          <mxGeometry relative="1" as="geometry" />
        </mxCell>
        <mxCell id="lYTeRvdv8kLkkW_NQM2Z-185" value="Control de Stock" style="rounded=1;arcSize=10;whiteSpace=wrap;html=1;align=center;strokeColor=default;" parent="1" vertex="1">
          <mxGeometry x="200" y="600" width="100" height="40" as="geometry" />
        </mxCell>
        <mxCell id="lYTeRvdv8kLkkW_NQM2Z-199" style="edgeStyle=orthogonalEdgeStyle;rounded=0;orthogonalLoop=1;jettySize=auto;html=1;entryX=0;entryY=0.5;entryDx=0;entryDy=0;endArrow=none;endFill=0;" parent="1" source="lYTeRvdv8kLkkW_NQM2Z-187" target="lYTeRvdv8kLkkW_NQM2Z-133" edge="1">
          <mxGeometry relative="1" as="geometry" />
        </mxCell>
        <mxCell id="lYTeRvdv8kLkkW_NQM2Z-187" value="Tiene" style="shape=rhombus;perimeter=rhombusPerimeter;whiteSpace=wrap;html=1;align=center;" parent="1" vertex="1">
          <mxGeometry x="410" y="590" width="120" height="60" as="geometry" />
        </mxCell>
        <mxCell id="lYTeRvdv8kLkkW_NQM2Z-210" value="ID_Factura" style="ellipse;whiteSpace=wrap;html=1;align=center;fontStyle=4;" parent="1" vertex="1">
          <mxGeometry x="950" y="500" width="100" height="40" as="geometry" />
        </mxCell>
        <mxCell id="lYTeRvdv8kLkkW_NQM2Z-217" value="PrecioTotalCuenta" style="ellipse;whiteSpace=wrap;html=1;align=center;" parent="1" vertex="1">
          <mxGeometry x="1141" y="500" width="100" height="40" as="geometry" />
        </mxCell>
        <mxCell id="lYTeRvdv8kLkkW_NQM2Z-218" value="FechaRealización" style="ellipse;whiteSpace=wrap;html=1;align=center;" parent="1" vertex="1">
          <mxGeometry x="950" y="450" width="100" height="40" as="geometry" />
        </mxCell>
        <mxCell id="lYTeRvdv8kLkkW_NQM2Z-219" value="MetodoPago" style="ellipse;whiteSpace=wrap;html=1;align=center;" parent="1" vertex="1">
          <mxGeometry x="1141" y="450" width="100" height="40" as="geometry" />
        </mxCell>
        <mxCell id="lYTeRvdv8kLkkW_NQM2Z-269" style="edgeStyle=orthogonalEdgeStyle;rounded=0;orthogonalLoop=1;jettySize=auto;html=1;entryX=0.5;entryY=0;entryDx=0;entryDy=0;" parent="1" source="lYTeRvdv8kLkkW_NQM2Z-228" target="lYTeRvdv8kLkkW_NQM2Z-241" edge="1">
          <mxGeometry relative="1" as="geometry" />
        </mxCell>
        <mxCell id="lYTeRvdv8kLkkW_NQM2Z-270" style="edgeStyle=orthogonalEdgeStyle;rounded=0;orthogonalLoop=1;jettySize=auto;html=1;entryX=1;entryY=0.5;entryDx=0;entryDy=0;" parent="1" source="lYTeRvdv8kLkkW_NQM2Z-228" target="lYTeRvdv8kLkkW_NQM2Z-242" edge="1">
          <mxGeometry relative="1" as="geometry">
            <Array as="points">
              <mxPoint x="1090" y="900" />
            </Array>
          </mxGeometry>
        </mxCell>
        <mxCell id="lYTeRvdv8kLkkW_NQM2Z-271" style="edgeStyle=orthogonalEdgeStyle;rounded=0;orthogonalLoop=1;jettySize=auto;html=1;entryX=0;entryY=0.5;entryDx=0;entryDy=0;" parent="1" source="lYTeRvdv8kLkkW_NQM2Z-228" target="lYTeRvdv8kLkkW_NQM2Z-232" edge="1">
          <mxGeometry relative="1" as="geometry">
            <Array as="points">
              <mxPoint x="1110" y="900" />
            </Array>
          </mxGeometry>
        </mxCell>
        <mxCell id="lYTeRvdv8kLkkW_NQM2Z-228" value="Recibo" style="rounded=1;arcSize=10;whiteSpace=wrap;html=1;align=center;" parent="1" vertex="1">
          <mxGeometry x="1050" y="820" width="100" height="40" as="geometry" />
        </mxCell>
        <mxCell id="lYTeRvdv8kLkkW_NQM2Z-232" value="Archivo" style="ellipse;whiteSpace=wrap;html=1;align=center;" parent="1" vertex="1">
          <mxGeometry x="1141" y="880" width="100" height="40" as="geometry" />
        </mxCell>
        <mxCell id="lYTeRvdv8kLkkW_NQM2Z-234" value="&lt;span style=&quot;border-bottom: 1px dotted&quot;&gt;ID_Recibo&lt;/span&gt;" style="ellipse;whiteSpace=wrap;html=1;align=center;" parent="1" vertex="1">
          <mxGeometry x="950" y="400" width="100" height="40" as="geometry" />
        </mxCell>
        <mxCell id="lYTeRvdv8kLkkW_NQM2Z-241" value="&lt;span style=&quot;border-bottom: 1px dotted&quot;&gt;ID_Factura&lt;/span&gt;" style="ellipse;whiteSpace=wrap;html=1;align=center;" parent="1" vertex="1">
          <mxGeometry x="1050" y="930" width="100" height="40" as="geometry" />
        </mxCell>
        <mxCell id="lYTeRvdv8kLkkW_NQM2Z-242" value="&lt;u&gt;ID_Recibo&lt;/u&gt;" style="ellipse;whiteSpace=wrap;html=1;align=center;" parent="1" vertex="1">
          <mxGeometry x="950" y="880" width="100" height="40" as="geometry" />
        </mxCell>
        <mxCell id="lYTeRvdv8kLkkW_NQM2Z-252" style="edgeStyle=orthogonalEdgeStyle;rounded=0;orthogonalLoop=1;jettySize=auto;html=1;entryX=0.5;entryY=1;entryDx=0;entryDy=0;endArrow=none;endFill=0;" parent="1" source="lYTeRvdv8kLkkW_NQM2Z-247" target="lYTeRvdv8kLkkW_NQM2Z-251" edge="1">
          <mxGeometry relative="1" as="geometry" />
        </mxCell>
        <mxCell id="lYTeRvdv8kLkkW_NQM2Z-253" style="edgeStyle=orthogonalEdgeStyle;rounded=0;orthogonalLoop=1;jettySize=auto;html=1;entryX=1;entryY=0.5;entryDx=0;entryDy=0;endArrow=none;endFill=0;" parent="1" source="lYTeRvdv8kLkkW_NQM2Z-247" target="lYTeRvdv8kLkkW_NQM2Z-249" edge="1">
          <mxGeometry relative="1" as="geometry">
            <Array as="points">
              <mxPoint x="1090" y="330" />
            </Array>
          </mxGeometry>
        </mxCell>
        <mxCell id="lYTeRvdv8kLkkW_NQM2Z-254" style="edgeStyle=orthogonalEdgeStyle;rounded=0;orthogonalLoop=1;jettySize=auto;html=1;entryX=0;entryY=0.5;entryDx=0;entryDy=0;endArrow=none;endFill=0;" parent="1" source="lYTeRvdv8kLkkW_NQM2Z-247" target="lYTeRvdv8kLkkW_NQM2Z-250" edge="1">
          <mxGeometry relative="1" as="geometry">
            <Array as="points">
              <mxPoint x="1110" y="330" />
            </Array>
          </mxGeometry>
        </mxCell>
        <mxCell id="lYTeRvdv8kLkkW_NQM2Z-247" value="Producto" style="ellipse;shape=doubleEllipse;margin=3;whiteSpace=wrap;html=1;align=center;" parent="1" vertex="1">
          <mxGeometry x="1050" y="360" width="100" height="40" as="geometry" />
        </mxCell>
        <mxCell id="lYTeRvdv8kLkkW_NQM2Z-249" value="CantidadProducto" style="ellipse;whiteSpace=wrap;html=1;align=center;" parent="1" vertex="1">
          <mxGeometry x="950" y="310" width="100" height="40" as="geometry" />
        </mxCell>
        <mxCell id="lYTeRvdv8kLkkW_NQM2Z-250" value="&lt;span style=&quot;border-bottom: 1px dotted&quot;&gt;CódigoProducto&lt;/span&gt;" style="ellipse;whiteSpace=wrap;html=1;align=center;" parent="1" vertex="1">
          <mxGeometry x="1141" y="310" width="100" height="40" as="geometry" />
        </mxCell>
        <mxCell id="lYTeRvdv8kLkkW_NQM2Z-251" value="PrecioUnitario&lt;br&gt;Producto" style="ellipse;whiteSpace=wrap;html=1;align=center;" parent="1" vertex="1">
          <mxGeometry x="1035" y="240" width="130" height="50" as="geometry" />
        </mxCell>
        <mxCell id="lYTeRvdv8kLkkW_NQM2Z-256" value="ID_ControlStock" style="ellipse;whiteSpace=wrap;html=1;align=center;fontStyle=4;" parent="1" vertex="1">
          <mxGeometry x="110" y="540" width="100" height="40" as="geometry" />
        </mxCell>
        <mxCell id="lYTeRvdv8kLkkW_NQM2Z-257" value="&lt;span style=&quot;border-bottom: 1px dotted&quot;&gt;CódigoProducto&lt;/span&gt;" style="ellipse;whiteSpace=wrap;html=1;align=center;" parent="1" vertex="1">
          <mxGeometry x="290" y="540" width="100" height="40" as="geometry" />
        </mxCell>
        <mxCell id="lYTeRvdv8kLkkW_NQM2Z-263" style="edgeStyle=orthogonalEdgeStyle;rounded=0;orthogonalLoop=1;jettySize=auto;html=1;entryX=0.5;entryY=1;entryDx=0;entryDy=0;endArrow=none;endFill=0;" parent="1" source="lYTeRvdv8kLkkW_NQM2Z-260" target="lYTeRvdv8kLkkW_NQM2Z-141" edge="1">
          <mxGeometry relative="1" as="geometry" />
        </mxCell>
        <mxCell id="lYTeRvdv8kLkkW_NQM2Z-260" value="Tiene" style="shape=rhombus;perimeter=rhombusPerimeter;whiteSpace=wrap;html=1;align=center;" parent="1" vertex="1">
          <mxGeometry x="633" y="460" width="120" height="60" as="geometry" />
        </mxCell>
        <mxCell id="ylq0Wh5do1DhNVSN07a9-77" value="ID_EstadoReposición" style="ellipse;whiteSpace=wrap;html=1;align=center;" parent="1" vertex="1">
          <mxGeometry x="190" y="670" width="120" height="40" as="geometry" />
        </mxCell>
        <mxCell id="ylq0Wh5do1DhNVSN07a9-78" value="0 = NO repuesto&lt;br&gt;1 = Ya repuesto" style="text;html=1;align=center;verticalAlign=middle;resizable=0;points=[];autosize=1;strokeColor=none;fillColor=none;" parent="1" vertex="1">
          <mxGeometry x="310" y="670" width="110" height="40" as="geometry" />
        </mxCell>
        <mxCell id="ylq0Wh5do1DhNVSN07a9-82" style="edgeStyle=orthogonalEdgeStyle;shape=connector;rounded=0;orthogonalLoop=1;jettySize=auto;html=1;exitX=1;exitY=0.5;exitDx=0;exitDy=0;entryX=0.375;entryY=1.013;entryDx=0;entryDy=0;entryPerimeter=0;labelBackgroundColor=default;strokeColor=default;fontFamily=Helvetica;fontSize=11;fontColor=default;endArrow=none;endFill=0;" parent="1" source="ylq0Wh5do1DhNVSN07a9-81" target="lYTeRvdv8kLkkW_NQM2Z-133" edge="1">
          <mxGeometry relative="1" as="geometry" />
        </mxCell>
        <mxCell id="ylq0Wh5do1DhNVSN07a9-81" value="&lt;span style=&quot;border-bottom: 1px dotted&quot;&gt;ID_ControlStock&lt;/span&gt;" style="ellipse;whiteSpace=wrap;html=1;align=center;" parent="1" vertex="1">
          <mxGeometry x="543" y="660" width="100" height="40" as="geometry" />
        </mxCell>
        <mxCell id="l4XwQl3PcMBx6Q5eZ_6Q-120" value="Aplicación" style="shape=table;startSize=30;container=1;collapsible=1;childLayout=tableLayout;fixedRows=1;rowLines=0;fontStyle=1;align=center;resizeLast=1;html=1;whiteSpace=wrap;" vertex="1" parent="1">
          <mxGeometry x="1680" y="580" width="180" height="150" as="geometry" />
        </mxCell>
        <mxCell id="l4XwQl3PcMBx6Q5eZ_6Q-121" value="" style="shape=tableRow;horizontal=0;startSize=0;swimlaneHead=0;swimlaneBody=0;fillColor=none;collapsible=0;dropTarget=0;points=[[0,0.5],[1,0.5]];portConstraint=eastwest;top=0;left=0;right=0;bottom=0;html=1;" vertex="1" parent="l4XwQl3PcMBx6Q5eZ_6Q-120">
          <mxGeometry y="30" width="180" height="30" as="geometry" />
        </mxCell>
        <mxCell id="l4XwQl3PcMBx6Q5eZ_6Q-122" value="FK" style="shape=partialRectangle;connectable=0;fillColor=none;top=0;left=0;bottom=0;right=0;fontStyle=1;overflow=hidden;html=1;whiteSpace=wrap;" vertex="1" parent="l4XwQl3PcMBx6Q5eZ_6Q-121">
          <mxGeometry width="60.00000000000023" height="30" as="geometry">
            <mxRectangle width="60.00000000000023" height="30" as="alternateBounds" />
          </mxGeometry>
        </mxCell>
        <mxCell id="l4XwQl3PcMBx6Q5eZ_6Q-123" value="&amp;nbsp;ID_Factura" style="shape=partialRectangle;connectable=0;fillColor=none;top=0;left=0;bottom=0;right=0;align=left;spacingLeft=6;fontStyle=5;overflow=hidden;html=1;whiteSpace=wrap;" vertex="1" parent="l4XwQl3PcMBx6Q5eZ_6Q-121">
          <mxGeometry x="60.00000000000023" width="119.99999999999977" height="30" as="geometry">
            <mxRectangle width="119.99999999999977" height="30" as="alternateBounds" />
          </mxGeometry>
        </mxCell>
        <mxCell id="l4XwQl3PcMBx6Q5eZ_6Q-124" value="" style="shape=tableRow;horizontal=0;startSize=0;swimlaneHead=0;swimlaneBody=0;fillColor=none;collapsible=0;dropTarget=0;points=[[0,0.5],[1,0.5]];portConstraint=eastwest;top=0;left=0;right=0;bottom=0;html=1;" vertex="1" parent="l4XwQl3PcMBx6Q5eZ_6Q-120">
          <mxGeometry y="60" width="180" height="30" as="geometry" />
        </mxCell>
        <mxCell id="l4XwQl3PcMBx6Q5eZ_6Q-125" value="FK" style="shape=partialRectangle;connectable=0;fillColor=none;top=0;left=0;bottom=0;right=0;fontStyle=1;overflow=hidden;html=1;whiteSpace=wrap;" vertex="1" parent="l4XwQl3PcMBx6Q5eZ_6Q-124">
          <mxGeometry width="60.00000000000023" height="30" as="geometry">
            <mxRectangle width="60.00000000000023" height="30" as="alternateBounds" />
          </mxGeometry>
        </mxCell>
        <mxCell id="l4XwQl3PcMBx6Q5eZ_6Q-126" value="CódigoProducto" style="shape=partialRectangle;connectable=0;fillColor=none;top=0;left=0;bottom=0;right=0;align=left;spacingLeft=6;fontStyle=5;overflow=hidden;html=1;whiteSpace=wrap;" vertex="1" parent="l4XwQl3PcMBx6Q5eZ_6Q-124">
          <mxGeometry x="60.00000000000023" width="119.99999999999977" height="30" as="geometry">
            <mxRectangle width="119.99999999999977" height="30" as="alternateBounds" />
          </mxGeometry>
        </mxCell>
        <mxCell id="l4XwQl3PcMBx6Q5eZ_6Q-127" value="" style="shape=tableRow;horizontal=0;startSize=0;swimlaneHead=0;swimlaneBody=0;fillColor=none;collapsible=0;dropTarget=0;points=[[0,0.5],[1,0.5]];portConstraint=eastwest;top=0;left=0;right=0;bottom=0;html=1;" vertex="1" parent="l4XwQl3PcMBx6Q5eZ_6Q-120">
          <mxGeometry y="90" width="180" height="30" as="geometry" />
        </mxCell>
        <mxCell id="l4XwQl3PcMBx6Q5eZ_6Q-128" value="FK" style="shape=partialRectangle;connectable=0;fillColor=none;top=0;left=0;bottom=0;right=0;fontStyle=1;overflow=hidden;html=1;whiteSpace=wrap;" vertex="1" parent="l4XwQl3PcMBx6Q5eZ_6Q-127">
          <mxGeometry width="60.00000000000023" height="30" as="geometry">
            <mxRectangle width="60.00000000000023" height="30" as="alternateBounds" />
          </mxGeometry>
        </mxCell>
        <mxCell id="l4XwQl3PcMBx6Q5eZ_6Q-129" value="ID_Usuario" style="shape=partialRectangle;connectable=0;fillColor=none;top=0;left=0;bottom=0;right=0;align=left;spacingLeft=6;fontStyle=5;overflow=hidden;html=1;whiteSpace=wrap;" vertex="1" parent="l4XwQl3PcMBx6Q5eZ_6Q-127">
          <mxGeometry x="60.00000000000023" width="119.99999999999977" height="30" as="geometry">
            <mxRectangle width="119.99999999999977" height="30" as="alternateBounds" />
          </mxGeometry>
        </mxCell>
        <mxCell id="l4XwQl3PcMBx6Q5eZ_6Q-130" value="" style="shape=tableRow;horizontal=0;startSize=0;swimlaneHead=0;swimlaneBody=0;fillColor=none;collapsible=0;dropTarget=0;points=[[0,0.5],[1,0.5]];portConstraint=eastwest;top=0;left=0;right=0;bottom=0;html=1;" vertex="1" parent="l4XwQl3PcMBx6Q5eZ_6Q-120">
          <mxGeometry y="120" width="180" height="30" as="geometry" />
        </mxCell>
        <mxCell id="l4XwQl3PcMBx6Q5eZ_6Q-131" value="FK" style="shape=partialRectangle;connectable=0;fillColor=none;top=0;left=0;bottom=0;right=0;fontStyle=1;overflow=hidden;html=1;whiteSpace=wrap;" vertex="1" parent="l4XwQl3PcMBx6Q5eZ_6Q-130">
          <mxGeometry width="60.00000000000023" height="30" as="geometry">
            <mxRectangle width="60.00000000000023" height="30" as="alternateBounds" />
          </mxGeometry>
        </mxCell>
        <mxCell id="l4XwQl3PcMBx6Q5eZ_6Q-132" value="ID_ControlStock" style="shape=partialRectangle;connectable=0;fillColor=none;top=0;left=0;bottom=0;right=0;align=left;spacingLeft=6;fontStyle=5;overflow=hidden;html=1;whiteSpace=wrap;" vertex="1" parent="l4XwQl3PcMBx6Q5eZ_6Q-130">
          <mxGeometry x="60.00000000000023" width="119.99999999999977" height="30" as="geometry">
            <mxRectangle width="119.99999999999977" height="30" as="alternateBounds" />
          </mxGeometry>
        </mxCell>
        <mxCell id="l4XwQl3PcMBx6Q5eZ_6Q-133" value="Usuario" style="shape=table;startSize=30;container=1;collapsible=1;childLayout=tableLayout;fixedRows=1;rowLines=0;fontStyle=1;align=center;resizeLast=1;html=1;whiteSpace=wrap;" vertex="1" parent="1">
          <mxGeometry x="1390" y="640" width="180" height="150" as="geometry" />
        </mxCell>
        <mxCell id="l4XwQl3PcMBx6Q5eZ_6Q-134" value="" style="shape=tableRow;horizontal=0;startSize=0;swimlaneHead=0;swimlaneBody=0;fillColor=none;collapsible=0;dropTarget=0;points=[[0,0.5],[1,0.5]];portConstraint=eastwest;top=0;left=0;right=0;bottom=1;html=1;" vertex="1" parent="l4XwQl3PcMBx6Q5eZ_6Q-133">
          <mxGeometry y="30" width="180" height="30" as="geometry" />
        </mxCell>
        <mxCell id="l4XwQl3PcMBx6Q5eZ_6Q-135" value="PK" style="shape=partialRectangle;connectable=0;fillColor=none;top=0;left=0;bottom=0;right=0;fontStyle=1;overflow=hidden;html=1;whiteSpace=wrap;" vertex="1" parent="l4XwQl3PcMBx6Q5eZ_6Q-134">
          <mxGeometry width="60" height="30" as="geometry">
            <mxRectangle width="60" height="30" as="alternateBounds" />
          </mxGeometry>
        </mxCell>
        <mxCell id="l4XwQl3PcMBx6Q5eZ_6Q-136" value="ID_Usuario" style="shape=partialRectangle;connectable=0;fillColor=none;top=0;left=0;bottom=0;right=0;align=left;spacingLeft=6;fontStyle=5;overflow=hidden;html=1;whiteSpace=wrap;" vertex="1" parent="l4XwQl3PcMBx6Q5eZ_6Q-134">
          <mxGeometry x="60" width="120" height="30" as="geometry">
            <mxRectangle width="120" height="30" as="alternateBounds" />
          </mxGeometry>
        </mxCell>
        <mxCell id="l4XwQl3PcMBx6Q5eZ_6Q-137" value="" style="shape=tableRow;horizontal=0;startSize=0;swimlaneHead=0;swimlaneBody=0;fillColor=none;collapsible=0;dropTarget=0;points=[[0,0.5],[1,0.5]];portConstraint=eastwest;top=0;left=0;right=0;bottom=0;html=1;" vertex="1" parent="l4XwQl3PcMBx6Q5eZ_6Q-133">
          <mxGeometry y="60" width="180" height="30" as="geometry" />
        </mxCell>
        <mxCell id="l4XwQl3PcMBx6Q5eZ_6Q-138" value="" style="shape=partialRectangle;connectable=0;fillColor=none;top=0;left=0;bottom=0;right=0;editable=1;overflow=hidden;html=1;whiteSpace=wrap;" vertex="1" parent="l4XwQl3PcMBx6Q5eZ_6Q-137">
          <mxGeometry width="60" height="30" as="geometry">
            <mxRectangle width="60" height="30" as="alternateBounds" />
          </mxGeometry>
        </mxCell>
        <mxCell id="l4XwQl3PcMBx6Q5eZ_6Q-139" value="NombreUsuario" style="shape=partialRectangle;connectable=0;fillColor=none;top=0;left=0;bottom=0;right=0;align=left;spacingLeft=6;overflow=hidden;html=1;whiteSpace=wrap;" vertex="1" parent="l4XwQl3PcMBx6Q5eZ_6Q-137">
          <mxGeometry x="60" width="120" height="30" as="geometry">
            <mxRectangle width="120" height="30" as="alternateBounds" />
          </mxGeometry>
        </mxCell>
        <mxCell id="l4XwQl3PcMBx6Q5eZ_6Q-140" value="" style="shape=tableRow;horizontal=0;startSize=0;swimlaneHead=0;swimlaneBody=0;fillColor=none;collapsible=0;dropTarget=0;points=[[0,0.5],[1,0.5]];portConstraint=eastwest;top=0;left=0;right=0;bottom=0;html=1;" vertex="1" parent="l4XwQl3PcMBx6Q5eZ_6Q-133">
          <mxGeometry y="90" width="180" height="30" as="geometry" />
        </mxCell>
        <mxCell id="l4XwQl3PcMBx6Q5eZ_6Q-141" value="" style="shape=partialRectangle;connectable=0;fillColor=none;top=0;left=0;bottom=0;right=0;editable=1;overflow=hidden;html=1;whiteSpace=wrap;" vertex="1" parent="l4XwQl3PcMBx6Q5eZ_6Q-140">
          <mxGeometry width="60" height="30" as="geometry">
            <mxRectangle width="60" height="30" as="alternateBounds" />
          </mxGeometry>
        </mxCell>
        <mxCell id="l4XwQl3PcMBx6Q5eZ_6Q-142" value="ContraseñaUsuario" style="shape=partialRectangle;connectable=0;fillColor=none;top=0;left=0;bottom=0;right=0;align=left;spacingLeft=6;overflow=hidden;html=1;whiteSpace=wrap;" vertex="1" parent="l4XwQl3PcMBx6Q5eZ_6Q-140">
          <mxGeometry x="60" width="120" height="30" as="geometry">
            <mxRectangle width="120" height="30" as="alternateBounds" />
          </mxGeometry>
        </mxCell>
        <mxCell id="l4XwQl3PcMBx6Q5eZ_6Q-143" value="" style="shape=tableRow;horizontal=0;startSize=0;swimlaneHead=0;swimlaneBody=0;fillColor=none;collapsible=0;dropTarget=0;points=[[0,0.5],[1,0.5]];portConstraint=eastwest;top=0;left=0;right=0;bottom=0;html=1;" vertex="1" parent="l4XwQl3PcMBx6Q5eZ_6Q-133">
          <mxGeometry y="120" width="180" height="30" as="geometry" />
        </mxCell>
        <mxCell id="l4XwQl3PcMBx6Q5eZ_6Q-144" value="" style="shape=partialRectangle;connectable=0;fillColor=none;top=0;left=0;bottom=0;right=0;editable=1;overflow=hidden;html=1;whiteSpace=wrap;" vertex="1" parent="l4XwQl3PcMBx6Q5eZ_6Q-143">
          <mxGeometry width="60" height="30" as="geometry">
            <mxRectangle width="60" height="30" as="alternateBounds" />
          </mxGeometry>
        </mxCell>
        <mxCell id="l4XwQl3PcMBx6Q5eZ_6Q-145" value="ID_RolUsuario" style="shape=partialRectangle;connectable=0;fillColor=none;top=0;left=0;bottom=0;right=0;align=left;spacingLeft=6;overflow=hidden;html=1;whiteSpace=wrap;" vertex="1" parent="l4XwQl3PcMBx6Q5eZ_6Q-143">
          <mxGeometry x="60" width="120" height="30" as="geometry">
            <mxRectangle width="120" height="30" as="alternateBounds" />
          </mxGeometry>
        </mxCell>
        <mxCell id="l4XwQl3PcMBx6Q5eZ_6Q-146" value="Factura" style="shape=table;startSize=30;container=1;collapsible=1;childLayout=tableLayout;fixedRows=1;rowLines=0;fontStyle=1;align=center;resizeLast=1;html=1;whiteSpace=wrap;" vertex="1" parent="1">
          <mxGeometry x="2039.94" y="470" width="180" height="180" as="geometry" />
        </mxCell>
        <mxCell id="l4XwQl3PcMBx6Q5eZ_6Q-147" value="" style="shape=tableRow;horizontal=0;startSize=0;swimlaneHead=0;swimlaneBody=0;fillColor=none;collapsible=0;dropTarget=0;points=[[0,0.5],[1,0.5]];portConstraint=eastwest;top=0;left=0;right=0;bottom=0;html=1;" vertex="1" parent="l4XwQl3PcMBx6Q5eZ_6Q-146">
          <mxGeometry y="30" width="180" height="30" as="geometry" />
        </mxCell>
        <mxCell id="l4XwQl3PcMBx6Q5eZ_6Q-148" value="PK" style="shape=partialRectangle;connectable=0;fillColor=none;top=0;left=0;bottom=0;right=0;fontStyle=1;overflow=hidden;html=1;whiteSpace=wrap;" vertex="1" parent="l4XwQl3PcMBx6Q5eZ_6Q-147">
          <mxGeometry width="40.00000000000091" height="30" as="geometry">
            <mxRectangle width="40.00000000000091" height="30" as="alternateBounds" />
          </mxGeometry>
        </mxCell>
        <mxCell id="l4XwQl3PcMBx6Q5eZ_6Q-149" value="ID_Factura" style="shape=partialRectangle;connectable=0;fillColor=none;top=0;left=0;bottom=0;right=0;align=left;spacingLeft=6;fontStyle=5;overflow=hidden;html=1;whiteSpace=wrap;" vertex="1" parent="l4XwQl3PcMBx6Q5eZ_6Q-147">
          <mxGeometry x="40.00000000000091" width="139.9999999999991" height="30" as="geometry">
            <mxRectangle width="139.9999999999991" height="30" as="alternateBounds" />
          </mxGeometry>
        </mxCell>
        <mxCell id="l4XwQl3PcMBx6Q5eZ_6Q-150" value="" style="shape=tableRow;horizontal=0;startSize=0;swimlaneHead=0;swimlaneBody=0;fillColor=none;collapsible=0;dropTarget=0;points=[[0,0.5],[1,0.5]];portConstraint=eastwest;top=0;left=0;right=0;bottom=1;html=1;" vertex="1" parent="l4XwQl3PcMBx6Q5eZ_6Q-146">
          <mxGeometry y="60" width="180" height="30" as="geometry" />
        </mxCell>
        <mxCell id="l4XwQl3PcMBx6Q5eZ_6Q-151" value="FK" style="shape=partialRectangle;connectable=0;fillColor=none;top=0;left=0;bottom=0;right=0;fontStyle=1;overflow=hidden;html=1;whiteSpace=wrap;" vertex="1" parent="l4XwQl3PcMBx6Q5eZ_6Q-150">
          <mxGeometry width="40.00000000000091" height="30" as="geometry">
            <mxRectangle width="40.00000000000091" height="30" as="alternateBounds" />
          </mxGeometry>
        </mxCell>
        <mxCell id="l4XwQl3PcMBx6Q5eZ_6Q-152" value="ID_Recibo" style="shape=partialRectangle;connectable=0;fillColor=none;top=0;left=0;bottom=0;right=0;align=left;spacingLeft=6;fontStyle=5;overflow=hidden;html=1;whiteSpace=wrap;" vertex="1" parent="l4XwQl3PcMBx6Q5eZ_6Q-150">
          <mxGeometry x="40.00000000000091" width="139.9999999999991" height="30" as="geometry">
            <mxRectangle width="139.9999999999991" height="30" as="alternateBounds" />
          </mxGeometry>
        </mxCell>
        <mxCell id="l4XwQl3PcMBx6Q5eZ_6Q-153" value="" style="shape=tableRow;horizontal=0;startSize=0;swimlaneHead=0;swimlaneBody=0;fillColor=none;collapsible=0;dropTarget=0;points=[[0,0.5],[1,0.5]];portConstraint=eastwest;top=0;left=0;right=0;bottom=0;html=1;" vertex="1" parent="l4XwQl3PcMBx6Q5eZ_6Q-146">
          <mxGeometry y="90" width="180" height="30" as="geometry" />
        </mxCell>
        <mxCell id="l4XwQl3PcMBx6Q5eZ_6Q-154" value="" style="shape=partialRectangle;connectable=0;fillColor=none;top=0;left=0;bottom=0;right=0;editable=1;overflow=hidden;html=1;whiteSpace=wrap;" vertex="1" parent="l4XwQl3PcMBx6Q5eZ_6Q-153">
          <mxGeometry width="40.00000000000091" height="30" as="geometry">
            <mxRectangle width="40.00000000000091" height="30" as="alternateBounds" />
          </mxGeometry>
        </mxCell>
        <mxCell id="l4XwQl3PcMBx6Q5eZ_6Q-155" value="FechaRealización" style="shape=partialRectangle;connectable=0;fillColor=none;top=0;left=0;bottom=0;right=0;align=left;spacingLeft=6;overflow=hidden;html=1;whiteSpace=wrap;" vertex="1" parent="l4XwQl3PcMBx6Q5eZ_6Q-153">
          <mxGeometry x="40.00000000000091" width="139.9999999999991" height="30" as="geometry">
            <mxRectangle width="139.9999999999991" height="30" as="alternateBounds" />
          </mxGeometry>
        </mxCell>
        <mxCell id="l4XwQl3PcMBx6Q5eZ_6Q-156" value="" style="shape=tableRow;horizontal=0;startSize=0;swimlaneHead=0;swimlaneBody=0;fillColor=none;collapsible=0;dropTarget=0;points=[[0,0.5],[1,0.5]];portConstraint=eastwest;top=0;left=0;right=0;bottom=0;html=1;" vertex="1" parent="l4XwQl3PcMBx6Q5eZ_6Q-146">
          <mxGeometry y="120" width="180" height="30" as="geometry" />
        </mxCell>
        <mxCell id="l4XwQl3PcMBx6Q5eZ_6Q-157" value="FK" style="shape=partialRectangle;connectable=0;fillColor=none;top=0;left=0;bottom=0;right=0;editable=1;overflow=hidden;html=1;whiteSpace=wrap;" vertex="1" parent="l4XwQl3PcMBx6Q5eZ_6Q-156">
          <mxGeometry width="40.00000000000091" height="30" as="geometry">
            <mxRectangle width="40.00000000000091" height="30" as="alternateBounds" />
          </mxGeometry>
        </mxCell>
        <mxCell id="l4XwQl3PcMBx6Q5eZ_6Q-158" value="ID_MetodoPago" style="shape=partialRectangle;connectable=0;fillColor=none;top=0;left=0;bottom=0;right=0;align=left;spacingLeft=6;overflow=hidden;html=1;whiteSpace=wrap;" vertex="1" parent="l4XwQl3PcMBx6Q5eZ_6Q-156">
          <mxGeometry x="40.00000000000091" width="139.9999999999991" height="30" as="geometry">
            <mxRectangle width="139.9999999999991" height="30" as="alternateBounds" />
          </mxGeometry>
        </mxCell>
        <mxCell id="l4XwQl3PcMBx6Q5eZ_6Q-159" value="" style="shape=tableRow;horizontal=0;startSize=0;swimlaneHead=0;swimlaneBody=0;fillColor=none;collapsible=0;dropTarget=0;points=[[0,0.5],[1,0.5]];portConstraint=eastwest;top=0;left=0;right=0;bottom=0;html=1;" vertex="1" parent="l4XwQl3PcMBx6Q5eZ_6Q-146">
          <mxGeometry y="150" width="180" height="30" as="geometry" />
        </mxCell>
        <mxCell id="l4XwQl3PcMBx6Q5eZ_6Q-160" value="" style="shape=partialRectangle;connectable=0;fillColor=none;top=0;left=0;bottom=0;right=0;editable=1;overflow=hidden;html=1;whiteSpace=wrap;" vertex="1" parent="l4XwQl3PcMBx6Q5eZ_6Q-159">
          <mxGeometry width="40.00000000000091" height="30" as="geometry">
            <mxRectangle width="40.00000000000091" height="30" as="alternateBounds" />
          </mxGeometry>
        </mxCell>
        <mxCell id="l4XwQl3PcMBx6Q5eZ_6Q-161" value="PrecioTotalCuenta" style="shape=partialRectangle;connectable=0;fillColor=none;top=0;left=0;bottom=0;right=0;align=left;spacingLeft=6;overflow=hidden;html=1;whiteSpace=wrap;" vertex="1" parent="l4XwQl3PcMBx6Q5eZ_6Q-159">
          <mxGeometry x="40.00000000000091" width="139.9999999999991" height="30" as="geometry">
            <mxRectangle width="139.9999999999991" height="30" as="alternateBounds" />
          </mxGeometry>
        </mxCell>
        <mxCell id="l4XwQl3PcMBx6Q5eZ_6Q-162" value="Recibo" style="shape=table;startSize=30;container=1;collapsible=1;childLayout=tableLayout;fixedRows=1;rowLines=0;fontStyle=1;align=center;resizeLast=1;html=1;whiteSpace=wrap;" vertex="1" parent="1">
          <mxGeometry x="2039.94" y="770" width="180" height="120" as="geometry" />
        </mxCell>
        <mxCell id="l4XwQl3PcMBx6Q5eZ_6Q-163" value="" style="shape=tableRow;horizontal=0;startSize=0;swimlaneHead=0;swimlaneBody=0;fillColor=none;collapsible=0;dropTarget=0;points=[[0,0.5],[1,0.5]];portConstraint=eastwest;top=0;left=0;right=0;bottom=0;html=1;" vertex="1" parent="l4XwQl3PcMBx6Q5eZ_6Q-162">
          <mxGeometry y="30" width="180" height="30" as="geometry" />
        </mxCell>
        <mxCell id="l4XwQl3PcMBx6Q5eZ_6Q-164" value="PK" style="shape=partialRectangle;connectable=0;fillColor=none;top=0;left=0;bottom=0;right=0;fontStyle=1;overflow=hidden;html=1;whiteSpace=wrap;" vertex="1" parent="l4XwQl3PcMBx6Q5eZ_6Q-163">
          <mxGeometry width="60" height="30" as="geometry">
            <mxRectangle width="60" height="30" as="alternateBounds" />
          </mxGeometry>
        </mxCell>
        <mxCell id="l4XwQl3PcMBx6Q5eZ_6Q-165" value="ID_Recibo" style="shape=partialRectangle;connectable=0;fillColor=none;top=0;left=0;bottom=0;right=0;align=left;spacingLeft=6;fontStyle=5;overflow=hidden;html=1;whiteSpace=wrap;" vertex="1" parent="l4XwQl3PcMBx6Q5eZ_6Q-163">
          <mxGeometry x="60" width="120" height="30" as="geometry">
            <mxRectangle width="120" height="30" as="alternateBounds" />
          </mxGeometry>
        </mxCell>
        <mxCell id="l4XwQl3PcMBx6Q5eZ_6Q-166" value="" style="shape=tableRow;horizontal=0;startSize=0;swimlaneHead=0;swimlaneBody=0;fillColor=none;collapsible=0;dropTarget=0;points=[[0,0.5],[1,0.5]];portConstraint=eastwest;top=0;left=0;right=0;bottom=1;html=1;" vertex="1" parent="l4XwQl3PcMBx6Q5eZ_6Q-162">
          <mxGeometry y="60" width="180" height="30" as="geometry" />
        </mxCell>
        <mxCell id="l4XwQl3PcMBx6Q5eZ_6Q-167" value="FK" style="shape=partialRectangle;connectable=0;fillColor=none;top=0;left=0;bottom=0;right=0;fontStyle=1;overflow=hidden;html=1;whiteSpace=wrap;" vertex="1" parent="l4XwQl3PcMBx6Q5eZ_6Q-166">
          <mxGeometry width="60" height="30" as="geometry">
            <mxRectangle width="60" height="30" as="alternateBounds" />
          </mxGeometry>
        </mxCell>
        <mxCell id="l4XwQl3PcMBx6Q5eZ_6Q-168" value="ID_Factura" style="shape=partialRectangle;connectable=0;fillColor=none;top=0;left=0;bottom=0;right=0;align=left;spacingLeft=6;fontStyle=5;overflow=hidden;html=1;whiteSpace=wrap;" vertex="1" parent="l4XwQl3PcMBx6Q5eZ_6Q-166">
          <mxGeometry x="60" width="120" height="30" as="geometry">
            <mxRectangle width="120" height="30" as="alternateBounds" />
          </mxGeometry>
        </mxCell>
        <mxCell id="l4XwQl3PcMBx6Q5eZ_6Q-169" value="" style="shape=tableRow;horizontal=0;startSize=0;swimlaneHead=0;swimlaneBody=0;fillColor=none;collapsible=0;dropTarget=0;points=[[0,0.5],[1,0.5]];portConstraint=eastwest;top=0;left=0;right=0;bottom=0;html=1;" vertex="1" parent="l4XwQl3PcMBx6Q5eZ_6Q-162">
          <mxGeometry y="90" width="180" height="30" as="geometry" />
        </mxCell>
        <mxCell id="l4XwQl3PcMBx6Q5eZ_6Q-170" value="" style="shape=partialRectangle;connectable=0;fillColor=none;top=0;left=0;bottom=0;right=0;editable=1;overflow=hidden;html=1;whiteSpace=wrap;" vertex="1" parent="l4XwQl3PcMBx6Q5eZ_6Q-169">
          <mxGeometry width="60" height="30" as="geometry">
            <mxRectangle width="60" height="30" as="alternateBounds" />
          </mxGeometry>
        </mxCell>
        <mxCell id="l4XwQl3PcMBx6Q5eZ_6Q-171" value="DireccionURL" style="shape=partialRectangle;connectable=0;fillColor=none;top=0;left=0;bottom=0;right=0;align=left;spacingLeft=6;overflow=hidden;html=1;whiteSpace=wrap;" vertex="1" parent="l4XwQl3PcMBx6Q5eZ_6Q-169">
          <mxGeometry x="60" width="120" height="30" as="geometry">
            <mxRectangle width="120" height="30" as="alternateBounds" />
          </mxGeometry>
        </mxCell>
        <mxCell id="l4XwQl3PcMBx6Q5eZ_6Q-172" style="edgeStyle=orthogonalEdgeStyle;rounded=0;orthogonalLoop=1;jettySize=auto;html=1;exitX=1;exitY=0.5;exitDx=0;exitDy=0;entryX=0;entryY=0.5;entryDx=0;entryDy=0;" edge="1" parent="1" source="l4XwQl3PcMBx6Q5eZ_6Q-134" target="l4XwQl3PcMBx6Q5eZ_6Q-127">
          <mxGeometry relative="1" as="geometry" />
        </mxCell>
        <mxCell id="l4XwQl3PcMBx6Q5eZ_6Q-173" style="edgeStyle=orthogonalEdgeStyle;rounded=0;orthogonalLoop=1;jettySize=auto;html=1;exitX=0;exitY=0.5;exitDx=0;exitDy=0;entryX=1;entryY=0.5;entryDx=0;entryDy=0;" edge="1" parent="1" source="l4XwQl3PcMBx6Q5eZ_6Q-147" target="l4XwQl3PcMBx6Q5eZ_6Q-121">
          <mxGeometry relative="1" as="geometry">
            <Array as="points">
              <mxPoint x="1940" y="515" />
              <mxPoint x="1940" y="625" />
            </Array>
          </mxGeometry>
        </mxCell>
        <mxCell id="l4XwQl3PcMBx6Q5eZ_6Q-174" style="edgeStyle=orthogonalEdgeStyle;rounded=0;orthogonalLoop=1;jettySize=auto;html=1;exitX=0;exitY=0.5;exitDx=0;exitDy=0;entryX=0;entryY=0.5;entryDx=0;entryDy=0;" edge="1" parent="1" source="l4XwQl3PcMBx6Q5eZ_6Q-163" target="l4XwQl3PcMBx6Q5eZ_6Q-150">
          <mxGeometry relative="1" as="geometry" />
        </mxCell>
        <mxCell id="l4XwQl3PcMBx6Q5eZ_6Q-175" style="edgeStyle=orthogonalEdgeStyle;rounded=0;orthogonalLoop=1;jettySize=auto;html=1;exitX=1;exitY=0.5;exitDx=0;exitDy=0;entryX=1;entryY=0.5;entryDx=0;entryDy=0;" edge="1" parent="1" source="l4XwQl3PcMBx6Q5eZ_6Q-147" target="l4XwQl3PcMBx6Q5eZ_6Q-166">
          <mxGeometry relative="1" as="geometry">
            <Array as="points">
              <mxPoint x="2240" y="515" />
              <mxPoint x="2240" y="845" />
            </Array>
          </mxGeometry>
        </mxCell>
        <mxCell id="l4XwQl3PcMBx6Q5eZ_6Q-176" value="Control deStock" style="shape=table;startSize=30;container=1;collapsible=1;childLayout=tableLayout;fixedRows=1;rowLines=0;fontStyle=1;align=center;resizeLast=1;html=1;whiteSpace=wrap;" vertex="1" parent="1">
          <mxGeometry x="1680" y="810" width="180" height="120" as="geometry" />
        </mxCell>
        <mxCell id="l4XwQl3PcMBx6Q5eZ_6Q-177" value="" style="shape=tableRow;horizontal=0;startSize=0;swimlaneHead=0;swimlaneBody=0;fillColor=none;collapsible=0;dropTarget=0;points=[[0,0.5],[1,0.5]];portConstraint=eastwest;top=0;left=0;right=0;bottom=0;html=1;" vertex="1" parent="l4XwQl3PcMBx6Q5eZ_6Q-176">
          <mxGeometry y="30" width="180" height="30" as="geometry" />
        </mxCell>
        <mxCell id="l4XwQl3PcMBx6Q5eZ_6Q-178" value="PK" style="shape=partialRectangle;connectable=0;fillColor=none;top=0;left=0;bottom=0;right=0;fontStyle=1;overflow=hidden;html=1;whiteSpace=wrap;" vertex="1" parent="l4XwQl3PcMBx6Q5eZ_6Q-177">
          <mxGeometry width="41.5" height="30" as="geometry">
            <mxRectangle width="41.5" height="30" as="alternateBounds" />
          </mxGeometry>
        </mxCell>
        <mxCell id="l4XwQl3PcMBx6Q5eZ_6Q-179" value="ID_ControlStock" style="shape=partialRectangle;connectable=0;fillColor=none;top=0;left=0;bottom=0;right=0;align=left;spacingLeft=6;fontStyle=5;overflow=hidden;html=1;whiteSpace=wrap;" vertex="1" parent="l4XwQl3PcMBx6Q5eZ_6Q-177">
          <mxGeometry x="41.5" width="138.5" height="30" as="geometry">
            <mxRectangle width="138.5" height="30" as="alternateBounds" />
          </mxGeometry>
        </mxCell>
        <mxCell id="l4XwQl3PcMBx6Q5eZ_6Q-180" value="" style="shape=tableRow;horizontal=0;startSize=0;swimlaneHead=0;swimlaneBody=0;fillColor=none;collapsible=0;dropTarget=0;points=[[0,0.5],[1,0.5]];portConstraint=eastwest;top=0;left=0;right=0;bottom=1;html=1;" vertex="1" parent="l4XwQl3PcMBx6Q5eZ_6Q-176">
          <mxGeometry y="60" width="180" height="30" as="geometry" />
        </mxCell>
        <mxCell id="l4XwQl3PcMBx6Q5eZ_6Q-181" value="FK" style="shape=partialRectangle;connectable=0;fillColor=none;top=0;left=0;bottom=0;right=0;fontStyle=1;overflow=hidden;html=1;whiteSpace=wrap;" vertex="1" parent="l4XwQl3PcMBx6Q5eZ_6Q-180">
          <mxGeometry width="41.5" height="30" as="geometry">
            <mxRectangle width="41.5" height="30" as="alternateBounds" />
          </mxGeometry>
        </mxCell>
        <mxCell id="l4XwQl3PcMBx6Q5eZ_6Q-182" value="CódigoProducto" style="shape=partialRectangle;connectable=0;fillColor=none;top=0;left=0;bottom=0;right=0;align=left;spacingLeft=6;fontStyle=5;overflow=hidden;html=1;whiteSpace=wrap;" vertex="1" parent="l4XwQl3PcMBx6Q5eZ_6Q-180">
          <mxGeometry x="41.5" width="138.5" height="30" as="geometry">
            <mxRectangle width="138.5" height="30" as="alternateBounds" />
          </mxGeometry>
        </mxCell>
        <mxCell id="l4XwQl3PcMBx6Q5eZ_6Q-183" value="" style="shape=tableRow;horizontal=0;startSize=0;swimlaneHead=0;swimlaneBody=0;fillColor=none;collapsible=0;dropTarget=0;points=[[0,0.5],[1,0.5]];portConstraint=eastwest;top=0;left=0;right=0;bottom=0;html=1;" vertex="1" parent="l4XwQl3PcMBx6Q5eZ_6Q-176">
          <mxGeometry y="90" width="180" height="30" as="geometry" />
        </mxCell>
        <mxCell id="l4XwQl3PcMBx6Q5eZ_6Q-184" value="" style="shape=partialRectangle;connectable=0;fillColor=none;top=0;left=0;bottom=0;right=0;editable=1;overflow=hidden;html=1;whiteSpace=wrap;" vertex="1" parent="l4XwQl3PcMBx6Q5eZ_6Q-183">
          <mxGeometry width="41.5" height="30" as="geometry">
            <mxRectangle width="41.5" height="30" as="alternateBounds" />
          </mxGeometry>
        </mxCell>
        <mxCell id="l4XwQl3PcMBx6Q5eZ_6Q-185" value="ID_EstadoReposición" style="shape=partialRectangle;connectable=0;fillColor=none;top=0;left=0;bottom=0;right=0;align=left;spacingLeft=6;overflow=hidden;html=1;whiteSpace=wrap;" vertex="1" parent="l4XwQl3PcMBx6Q5eZ_6Q-183">
          <mxGeometry x="41.5" width="138.5" height="30" as="geometry">
            <mxRectangle width="138.5" height="30" as="alternateBounds" />
          </mxGeometry>
        </mxCell>
        <mxCell id="l4XwQl3PcMBx6Q5eZ_6Q-186" style="edgeStyle=orthogonalEdgeStyle;shape=connector;rounded=0;orthogonalLoop=1;jettySize=auto;html=1;exitX=1;exitY=0.5;exitDx=0;exitDy=0;entryX=1;entryY=0.5;entryDx=0;entryDy=0;labelBackgroundColor=default;strokeColor=default;fontFamily=Helvetica;fontSize=11;fontColor=default;endArrow=none;endFill=0;startArrow=classic;startFill=1;" edge="1" parent="1" source="l4XwQl3PcMBx6Q5eZ_6Q-180" target="l4XwQl3PcMBx6Q5eZ_6Q-124">
          <mxGeometry relative="1" as="geometry">
            <Array as="points">
              <mxPoint x="1890" y="885" />
              <mxPoint x="1890" y="655" />
            </Array>
          </mxGeometry>
        </mxCell>
        <mxCell id="l4XwQl3PcMBx6Q5eZ_6Q-187" value="ProductosCompra" style="shape=table;startSize=30;container=1;collapsible=1;childLayout=tableLayout;fixedRows=1;rowLines=0;fontStyle=1;align=center;resizeLast=1;html=1;whiteSpace=wrap;" vertex="1" parent="1">
          <mxGeometry x="2039.94" y="260" width="180" height="150" as="geometry" />
        </mxCell>
        <mxCell id="l4XwQl3PcMBx6Q5eZ_6Q-188" value="" style="shape=tableRow;horizontal=0;startSize=0;swimlaneHead=0;swimlaneBody=0;fillColor=none;collapsible=0;dropTarget=0;points=[[0,0.5],[1,0.5]];portConstraint=eastwest;top=0;left=0;right=0;bottom=0;html=1;" vertex="1" parent="l4XwQl3PcMBx6Q5eZ_6Q-187">
          <mxGeometry y="30" width="180" height="30" as="geometry" />
        </mxCell>
        <mxCell id="l4XwQl3PcMBx6Q5eZ_6Q-189" value="PK, FK" style="shape=partialRectangle;connectable=0;fillColor=none;top=0;left=0;bottom=0;right=0;fontStyle=1;overflow=hidden;html=1;whiteSpace=wrap;" vertex="1" parent="l4XwQl3PcMBx6Q5eZ_6Q-188">
          <mxGeometry width="60" height="30" as="geometry">
            <mxRectangle width="60" height="30" as="alternateBounds" />
          </mxGeometry>
        </mxCell>
        <mxCell id="l4XwQl3PcMBx6Q5eZ_6Q-190" value="CódigoProducto" style="shape=partialRectangle;connectable=0;fillColor=none;top=0;left=0;bottom=0;right=0;align=left;spacingLeft=6;fontStyle=5;overflow=hidden;html=1;whiteSpace=wrap;" vertex="1" parent="l4XwQl3PcMBx6Q5eZ_6Q-188">
          <mxGeometry x="60" width="120" height="30" as="geometry">
            <mxRectangle width="120" height="30" as="alternateBounds" />
          </mxGeometry>
        </mxCell>
        <mxCell id="l4XwQl3PcMBx6Q5eZ_6Q-191" value="" style="shape=tableRow;horizontal=0;startSize=0;swimlaneHead=0;swimlaneBody=0;fillColor=none;collapsible=0;dropTarget=0;points=[[0,0.5],[1,0.5]];portConstraint=eastwest;top=0;left=0;right=0;bottom=1;html=1;" vertex="1" parent="l4XwQl3PcMBx6Q5eZ_6Q-187">
          <mxGeometry y="60" width="180" height="30" as="geometry" />
        </mxCell>
        <mxCell id="l4XwQl3PcMBx6Q5eZ_6Q-192" value="PK,FK" style="shape=partialRectangle;connectable=0;fillColor=none;top=0;left=0;bottom=0;right=0;fontStyle=1;overflow=hidden;html=1;whiteSpace=wrap;" vertex="1" parent="l4XwQl3PcMBx6Q5eZ_6Q-191">
          <mxGeometry width="60" height="30" as="geometry">
            <mxRectangle width="60" height="30" as="alternateBounds" />
          </mxGeometry>
        </mxCell>
        <mxCell id="l4XwQl3PcMBx6Q5eZ_6Q-193" value="ID_Factura" style="shape=partialRectangle;connectable=0;fillColor=none;top=0;left=0;bottom=0;right=0;align=left;spacingLeft=6;fontStyle=5;overflow=hidden;html=1;whiteSpace=wrap;" vertex="1" parent="l4XwQl3PcMBx6Q5eZ_6Q-191">
          <mxGeometry x="60" width="120" height="30" as="geometry">
            <mxRectangle width="120" height="30" as="alternateBounds" />
          </mxGeometry>
        </mxCell>
        <mxCell id="l4XwQl3PcMBx6Q5eZ_6Q-194" value="" style="shape=tableRow;horizontal=0;startSize=0;swimlaneHead=0;swimlaneBody=0;fillColor=none;collapsible=0;dropTarget=0;points=[[0,0.5],[1,0.5]];portConstraint=eastwest;top=0;left=0;right=0;bottom=0;html=1;" vertex="1" parent="l4XwQl3PcMBx6Q5eZ_6Q-187">
          <mxGeometry y="90" width="180" height="30" as="geometry" />
        </mxCell>
        <mxCell id="l4XwQl3PcMBx6Q5eZ_6Q-195" value="" style="shape=partialRectangle;connectable=0;fillColor=none;top=0;left=0;bottom=0;right=0;editable=1;overflow=hidden;html=1;whiteSpace=wrap;" vertex="1" parent="l4XwQl3PcMBx6Q5eZ_6Q-194">
          <mxGeometry width="60" height="30" as="geometry">
            <mxRectangle width="60" height="30" as="alternateBounds" />
          </mxGeometry>
        </mxCell>
        <mxCell id="l4XwQl3PcMBx6Q5eZ_6Q-196" value="Precio" style="shape=partialRectangle;connectable=0;fillColor=none;top=0;left=0;bottom=0;right=0;align=left;spacingLeft=6;overflow=hidden;html=1;whiteSpace=wrap;" vertex="1" parent="l4XwQl3PcMBx6Q5eZ_6Q-194">
          <mxGeometry x="60" width="120" height="30" as="geometry">
            <mxRectangle width="120" height="30" as="alternateBounds" />
          </mxGeometry>
        </mxCell>
        <mxCell id="l4XwQl3PcMBx6Q5eZ_6Q-197" value="" style="shape=tableRow;horizontal=0;startSize=0;swimlaneHead=0;swimlaneBody=0;fillColor=none;collapsible=0;dropTarget=0;points=[[0,0.5],[1,0.5]];portConstraint=eastwest;top=0;left=0;right=0;bottom=0;html=1;" vertex="1" parent="l4XwQl3PcMBx6Q5eZ_6Q-187">
          <mxGeometry y="120" width="180" height="30" as="geometry" />
        </mxCell>
        <mxCell id="l4XwQl3PcMBx6Q5eZ_6Q-198" value="" style="shape=partialRectangle;connectable=0;fillColor=none;top=0;left=0;bottom=0;right=0;editable=1;overflow=hidden;html=1;whiteSpace=wrap;" vertex="1" parent="l4XwQl3PcMBx6Q5eZ_6Q-197">
          <mxGeometry width="60" height="30" as="geometry">
            <mxRectangle width="60" height="30" as="alternateBounds" />
          </mxGeometry>
        </mxCell>
        <mxCell id="l4XwQl3PcMBx6Q5eZ_6Q-199" value="Cantidad" style="shape=partialRectangle;connectable=0;fillColor=none;top=0;left=0;bottom=0;right=0;align=left;spacingLeft=6;overflow=hidden;html=1;whiteSpace=wrap;" vertex="1" parent="l4XwQl3PcMBx6Q5eZ_6Q-197">
          <mxGeometry x="60" width="120" height="30" as="geometry">
            <mxRectangle width="120" height="30" as="alternateBounds" />
          </mxGeometry>
        </mxCell>
        <mxCell id="l4XwQl3PcMBx6Q5eZ_6Q-200" style="edgeStyle=orthogonalEdgeStyle;rounded=0;orthogonalLoop=1;jettySize=auto;html=1;exitX=1;exitY=0.5;exitDx=0;exitDy=0;" edge="1" parent="1">
          <mxGeometry relative="1" as="geometry">
            <mxPoint x="1860" y="651" as="sourcePoint" />
            <mxPoint x="2039" y="301" as="targetPoint" />
            <Array as="points">
              <mxPoint x="1980" y="651" />
              <mxPoint x="1980" y="301" />
              <mxPoint x="2039" y="301" />
            </Array>
          </mxGeometry>
        </mxCell>
        <mxCell id="l4XwQl3PcMBx6Q5eZ_6Q-201" style="edgeStyle=orthogonalEdgeStyle;rounded=0;orthogonalLoop=1;jettySize=auto;html=1;entryX=1;entryY=0.5;entryDx=0;entryDy=0;" edge="1" parent="1" target="l4XwQl3PcMBx6Q5eZ_6Q-191">
          <mxGeometry relative="1" as="geometry">
            <mxPoint x="2220" y="505" as="sourcePoint" />
            <mxPoint x="2210" y="330" as="targetPoint" />
            <Array as="points">
              <mxPoint x="2220" y="510" />
              <mxPoint x="2240" y="510" />
              <mxPoint x="2240" y="335" />
            </Array>
          </mxGeometry>
        </mxCell>
        <mxCell id="l4XwQl3PcMBx6Q5eZ_6Q-202" style="edgeStyle=orthogonalEdgeStyle;rounded=0;orthogonalLoop=1;jettySize=auto;html=1;exitX=0;exitY=0.5;exitDx=0;exitDy=0;entryX=0;entryY=0.5;entryDx=0;entryDy=0;" edge="1" parent="1" source="l4XwQl3PcMBx6Q5eZ_6Q-177" target="l4XwQl3PcMBx6Q5eZ_6Q-130">
          <mxGeometry relative="1" as="geometry">
            <Array as="points">
              <mxPoint x="1650" y="855" />
              <mxPoint x="1650" y="715" />
            </Array>
          </mxGeometry>
        </mxCell>
        <mxCell id="l4XwQl3PcMBx6Q5eZ_6Q-203" value="Producto" style="shape=table;startSize=30;container=1;collapsible=1;childLayout=tableLayout;fixedRows=1;rowLines=0;fontStyle=1;align=center;resizeLast=1;html=1;whiteSpace=wrap;" vertex="1" parent="1">
          <mxGeometry x="1390" y="400" width="180" height="180" as="geometry" />
        </mxCell>
        <mxCell id="l4XwQl3PcMBx6Q5eZ_6Q-204" value="" style="shape=tableRow;horizontal=0;startSize=0;swimlaneHead=0;swimlaneBody=0;fillColor=none;collapsible=0;dropTarget=0;points=[[0,0.5],[1,0.5]];portConstraint=eastwest;top=0;left=0;right=0;bottom=0;html=1;" vertex="1" parent="l4XwQl3PcMBx6Q5eZ_6Q-203">
          <mxGeometry y="30" width="180" height="30" as="geometry" />
        </mxCell>
        <mxCell id="l4XwQl3PcMBx6Q5eZ_6Q-205" value="PK" style="shape=partialRectangle;connectable=0;fillColor=none;top=0;left=0;bottom=0;right=0;fontStyle=1;overflow=hidden;html=1;whiteSpace=wrap;" vertex="1" parent="l4XwQl3PcMBx6Q5eZ_6Q-204">
          <mxGeometry width="60" height="30" as="geometry">
            <mxRectangle width="60" height="30" as="alternateBounds" />
          </mxGeometry>
        </mxCell>
        <mxCell id="l4XwQl3PcMBx6Q5eZ_6Q-206" value="CódigoProducto" style="shape=partialRectangle;connectable=0;fillColor=none;top=0;left=0;bottom=0;right=0;align=left;spacingLeft=6;fontStyle=5;overflow=hidden;html=1;whiteSpace=wrap;" vertex="1" parent="l4XwQl3PcMBx6Q5eZ_6Q-204">
          <mxGeometry x="60" width="120" height="30" as="geometry">
            <mxRectangle width="120" height="30" as="alternateBounds" />
          </mxGeometry>
        </mxCell>
        <mxCell id="l4XwQl3PcMBx6Q5eZ_6Q-207" value="" style="shape=tableRow;horizontal=0;startSize=0;swimlaneHead=0;swimlaneBody=0;fillColor=none;collapsible=0;dropTarget=0;points=[[0,0.5],[1,0.5]];portConstraint=eastwest;top=0;left=0;right=0;bottom=1;html=1;" vertex="1" parent="l4XwQl3PcMBx6Q5eZ_6Q-203">
          <mxGeometry y="60" width="180" height="30" as="geometry" />
        </mxCell>
        <mxCell id="l4XwQl3PcMBx6Q5eZ_6Q-208" value="FK" style="shape=partialRectangle;connectable=0;fillColor=none;top=0;left=0;bottom=0;right=0;fontStyle=1;overflow=hidden;html=1;whiteSpace=wrap;" vertex="1" parent="l4XwQl3PcMBx6Q5eZ_6Q-207">
          <mxGeometry width="60" height="30" as="geometry">
            <mxRectangle width="60" height="30" as="alternateBounds" />
          </mxGeometry>
        </mxCell>
        <mxCell id="l4XwQl3PcMBx6Q5eZ_6Q-209" value="Categoría" style="shape=partialRectangle;connectable=0;fillColor=none;top=0;left=0;bottom=0;right=0;align=left;spacingLeft=6;fontStyle=5;overflow=hidden;html=1;whiteSpace=wrap;" vertex="1" parent="l4XwQl3PcMBx6Q5eZ_6Q-207">
          <mxGeometry x="60" width="120" height="30" as="geometry">
            <mxRectangle width="120" height="30" as="alternateBounds" />
          </mxGeometry>
        </mxCell>
        <mxCell id="l4XwQl3PcMBx6Q5eZ_6Q-210" value="" style="shape=tableRow;horizontal=0;startSize=0;swimlaneHead=0;swimlaneBody=0;fillColor=none;collapsible=0;dropTarget=0;points=[[0,0.5],[1,0.5]];portConstraint=eastwest;top=0;left=0;right=0;bottom=0;html=1;" vertex="1" parent="l4XwQl3PcMBx6Q5eZ_6Q-203">
          <mxGeometry y="90" width="180" height="30" as="geometry" />
        </mxCell>
        <mxCell id="l4XwQl3PcMBx6Q5eZ_6Q-211" value="" style="shape=partialRectangle;connectable=0;fillColor=none;top=0;left=0;bottom=0;right=0;editable=1;overflow=hidden;html=1;whiteSpace=wrap;" vertex="1" parent="l4XwQl3PcMBx6Q5eZ_6Q-210">
          <mxGeometry width="60" height="30" as="geometry">
            <mxRectangle width="60" height="30" as="alternateBounds" />
          </mxGeometry>
        </mxCell>
        <mxCell id="l4XwQl3PcMBx6Q5eZ_6Q-212" value="Nombre" style="shape=partialRectangle;connectable=0;fillColor=none;top=0;left=0;bottom=0;right=0;align=left;spacingLeft=6;overflow=hidden;html=1;whiteSpace=wrap;" vertex="1" parent="l4XwQl3PcMBx6Q5eZ_6Q-210">
          <mxGeometry x="60" width="120" height="30" as="geometry">
            <mxRectangle width="120" height="30" as="alternateBounds" />
          </mxGeometry>
        </mxCell>
        <mxCell id="l4XwQl3PcMBx6Q5eZ_6Q-213" value="" style="shape=tableRow;horizontal=0;startSize=0;swimlaneHead=0;swimlaneBody=0;fillColor=none;collapsible=0;dropTarget=0;points=[[0,0.5],[1,0.5]];portConstraint=eastwest;top=0;left=0;right=0;bottom=0;html=1;" vertex="1" parent="l4XwQl3PcMBx6Q5eZ_6Q-203">
          <mxGeometry y="120" width="180" height="30" as="geometry" />
        </mxCell>
        <mxCell id="l4XwQl3PcMBx6Q5eZ_6Q-214" value="" style="shape=partialRectangle;connectable=0;fillColor=none;top=0;left=0;bottom=0;right=0;editable=1;overflow=hidden;html=1;whiteSpace=wrap;" vertex="1" parent="l4XwQl3PcMBx6Q5eZ_6Q-213">
          <mxGeometry width="60" height="30" as="geometry">
            <mxRectangle width="60" height="30" as="alternateBounds" />
          </mxGeometry>
        </mxCell>
        <mxCell id="l4XwQl3PcMBx6Q5eZ_6Q-215" value="Detalle" style="shape=partialRectangle;connectable=0;fillColor=none;top=0;left=0;bottom=0;right=0;align=left;spacingLeft=6;overflow=hidden;html=1;whiteSpace=wrap;" vertex="1" parent="l4XwQl3PcMBx6Q5eZ_6Q-213">
          <mxGeometry x="60" width="120" height="30" as="geometry">
            <mxRectangle width="120" height="30" as="alternateBounds" />
          </mxGeometry>
        </mxCell>
        <mxCell id="l4XwQl3PcMBx6Q5eZ_6Q-216" value="" style="shape=tableRow;horizontal=0;startSize=0;swimlaneHead=0;swimlaneBody=0;fillColor=none;collapsible=0;dropTarget=0;points=[[0,0.5],[1,0.5]];portConstraint=eastwest;top=0;left=0;right=0;bottom=0;html=1;" vertex="1" parent="l4XwQl3PcMBx6Q5eZ_6Q-203">
          <mxGeometry y="150" width="180" height="30" as="geometry" />
        </mxCell>
        <mxCell id="l4XwQl3PcMBx6Q5eZ_6Q-217" value="" style="shape=partialRectangle;connectable=0;fillColor=none;top=0;left=0;bottom=0;right=0;editable=1;overflow=hidden;html=1;whiteSpace=wrap;" vertex="1" parent="l4XwQl3PcMBx6Q5eZ_6Q-216">
          <mxGeometry width="60" height="30" as="geometry">
            <mxRectangle width="60" height="30" as="alternateBounds" />
          </mxGeometry>
        </mxCell>
        <mxCell id="l4XwQl3PcMBx6Q5eZ_6Q-218" value="Precio" style="shape=partialRectangle;connectable=0;fillColor=none;top=0;left=0;bottom=0;right=0;align=left;spacingLeft=6;overflow=hidden;html=1;whiteSpace=wrap;" vertex="1" parent="l4XwQl3PcMBx6Q5eZ_6Q-216">
          <mxGeometry x="60" width="120" height="30" as="geometry">
            <mxRectangle width="120" height="30" as="alternateBounds" />
          </mxGeometry>
        </mxCell>
        <mxCell id="l4XwQl3PcMBx6Q5eZ_6Q-219" style="edgeStyle=orthogonalEdgeStyle;rounded=0;orthogonalLoop=1;jettySize=auto;html=1;exitX=1;exitY=0.5;exitDx=0;exitDy=0;entryX=0;entryY=0.5;entryDx=0;entryDy=0;" edge="1" parent="1" source="l4XwQl3PcMBx6Q5eZ_6Q-204" target="l4XwQl3PcMBx6Q5eZ_6Q-124">
          <mxGeometry relative="1" as="geometry" />
        </mxCell>
        <mxCell id="l4XwQl3PcMBx6Q5eZ_6Q-220" value="Categoría" style="shape=table;startSize=30;container=1;collapsible=1;childLayout=tableLayout;fixedRows=1;rowLines=0;fontStyle=1;align=center;resizeLast=1;html=1;whiteSpace=wrap;" vertex="1" parent="1">
          <mxGeometry x="1390" y="270" width="180" height="90" as="geometry" />
        </mxCell>
        <mxCell id="l4XwQl3PcMBx6Q5eZ_6Q-221" value="" style="shape=tableRow;horizontal=0;startSize=0;swimlaneHead=0;swimlaneBody=0;fillColor=none;collapsible=0;dropTarget=0;points=[[0,0.5],[1,0.5]];portConstraint=eastwest;top=0;left=0;right=0;bottom=1;html=1;" vertex="1" parent="l4XwQl3PcMBx6Q5eZ_6Q-220">
          <mxGeometry y="30" width="180" height="30" as="geometry" />
        </mxCell>
        <mxCell id="l4XwQl3PcMBx6Q5eZ_6Q-222" value="PK" style="shape=partialRectangle;connectable=0;fillColor=none;top=0;left=0;bottom=0;right=0;fontStyle=1;overflow=hidden;html=1;whiteSpace=wrap;" vertex="1" parent="l4XwQl3PcMBx6Q5eZ_6Q-221">
          <mxGeometry width="60" height="30" as="geometry">
            <mxRectangle width="60" height="30" as="alternateBounds" />
          </mxGeometry>
        </mxCell>
        <mxCell id="l4XwQl3PcMBx6Q5eZ_6Q-223" value="ID_Categoría" style="shape=partialRectangle;connectable=0;fillColor=none;top=0;left=0;bottom=0;right=0;align=left;spacingLeft=6;fontStyle=5;overflow=hidden;html=1;whiteSpace=wrap;" vertex="1" parent="l4XwQl3PcMBx6Q5eZ_6Q-221">
          <mxGeometry x="60" width="120" height="30" as="geometry">
            <mxRectangle width="120" height="30" as="alternateBounds" />
          </mxGeometry>
        </mxCell>
        <mxCell id="l4XwQl3PcMBx6Q5eZ_6Q-224" value="" style="shape=tableRow;horizontal=0;startSize=0;swimlaneHead=0;swimlaneBody=0;fillColor=none;collapsible=0;dropTarget=0;points=[[0,0.5],[1,0.5]];portConstraint=eastwest;top=0;left=0;right=0;bottom=0;html=1;" vertex="1" parent="l4XwQl3PcMBx6Q5eZ_6Q-220">
          <mxGeometry y="60" width="180" height="30" as="geometry" />
        </mxCell>
        <mxCell id="l4XwQl3PcMBx6Q5eZ_6Q-225" value="" style="shape=partialRectangle;connectable=0;fillColor=none;top=0;left=0;bottom=0;right=0;editable=1;overflow=hidden;html=1;whiteSpace=wrap;" vertex="1" parent="l4XwQl3PcMBx6Q5eZ_6Q-224">
          <mxGeometry width="60" height="30" as="geometry">
            <mxRectangle width="60" height="30" as="alternateBounds" />
          </mxGeometry>
        </mxCell>
        <mxCell id="l4XwQl3PcMBx6Q5eZ_6Q-226" value="Nombre" style="shape=partialRectangle;connectable=0;fillColor=none;top=0;left=0;bottom=0;right=0;align=left;spacingLeft=6;overflow=hidden;html=1;whiteSpace=wrap;" vertex="1" parent="l4XwQl3PcMBx6Q5eZ_6Q-224">
          <mxGeometry x="60" width="120" height="30" as="geometry">
            <mxRectangle width="120" height="30" as="alternateBounds" />
          </mxGeometry>
        </mxCell>
        <mxCell id="l4XwQl3PcMBx6Q5eZ_6Q-227" style="edgeStyle=orthogonalEdgeStyle;rounded=0;orthogonalLoop=1;jettySize=auto;html=1;exitX=0;exitY=0.5;exitDx=0;exitDy=0;entryX=0;entryY=0.5;entryDx=0;entryDy=0;" edge="1" parent="1" source="l4XwQl3PcMBx6Q5eZ_6Q-207" target="l4XwQl3PcMBx6Q5eZ_6Q-221">
          <mxGeometry relative="1" as="geometry" />
        </mxCell>
        <mxCell id="l4XwQl3PcMBx6Q5eZ_6Q-228" value="MetodoPago" style="shape=table;startSize=30;container=1;collapsible=1;childLayout=tableLayout;fixedRows=1;rowLines=0;fontStyle=1;align=center;resizeLast=1;html=1;whiteSpace=wrap;" vertex="1" parent="1">
          <mxGeometry x="2290" y="560" width="180" height="120" as="geometry" />
        </mxCell>
        <mxCell id="l4XwQl3PcMBx6Q5eZ_6Q-229" value="" style="shape=tableRow;horizontal=0;startSize=0;swimlaneHead=0;swimlaneBody=0;fillColor=none;collapsible=0;dropTarget=0;points=[[0,0.5],[1,0.5]];portConstraint=eastwest;top=0;left=0;right=0;bottom=1;html=1;" vertex="1" parent="l4XwQl3PcMBx6Q5eZ_6Q-228">
          <mxGeometry y="30" width="180" height="30" as="geometry" />
        </mxCell>
        <mxCell id="l4XwQl3PcMBx6Q5eZ_6Q-230" value="PK" style="shape=partialRectangle;connectable=0;fillColor=none;top=0;left=0;bottom=0;right=0;fontStyle=1;overflow=hidden;html=1;whiteSpace=wrap;" vertex="1" parent="l4XwQl3PcMBx6Q5eZ_6Q-229">
          <mxGeometry width="60" height="30" as="geometry">
            <mxRectangle width="60" height="30" as="alternateBounds" />
          </mxGeometry>
        </mxCell>
        <mxCell id="l4XwQl3PcMBx6Q5eZ_6Q-231" value="ID_MetodoPago" style="shape=partialRectangle;connectable=0;fillColor=none;top=0;left=0;bottom=0;right=0;align=left;spacingLeft=6;fontStyle=5;overflow=hidden;html=1;whiteSpace=wrap;" vertex="1" parent="l4XwQl3PcMBx6Q5eZ_6Q-229">
          <mxGeometry x="60" width="120" height="30" as="geometry">
            <mxRectangle width="120" height="30" as="alternateBounds" />
          </mxGeometry>
        </mxCell>
        <mxCell id="l4XwQl3PcMBx6Q5eZ_6Q-232" value="" style="shape=tableRow;horizontal=0;startSize=0;swimlaneHead=0;swimlaneBody=0;fillColor=none;collapsible=0;dropTarget=0;points=[[0,0.5],[1,0.5]];portConstraint=eastwest;top=0;left=0;right=0;bottom=0;html=1;" vertex="1" parent="l4XwQl3PcMBx6Q5eZ_6Q-228">
          <mxGeometry y="60" width="180" height="30" as="geometry" />
        </mxCell>
        <mxCell id="l4XwQl3PcMBx6Q5eZ_6Q-233" value="" style="shape=partialRectangle;connectable=0;fillColor=none;top=0;left=0;bottom=0;right=0;editable=1;overflow=hidden;html=1;whiteSpace=wrap;" vertex="1" parent="l4XwQl3PcMBx6Q5eZ_6Q-232">
          <mxGeometry width="60" height="30" as="geometry">
            <mxRectangle width="60" height="30" as="alternateBounds" />
          </mxGeometry>
        </mxCell>
        <mxCell id="l4XwQl3PcMBx6Q5eZ_6Q-234" value="Nombre" style="shape=partialRectangle;connectable=0;fillColor=none;top=0;left=0;bottom=0;right=0;align=left;spacingLeft=6;overflow=hidden;html=1;whiteSpace=wrap;" vertex="1" parent="l4XwQl3PcMBx6Q5eZ_6Q-232">
          <mxGeometry x="60" width="120" height="30" as="geometry">
            <mxRectangle width="120" height="30" as="alternateBounds" />
          </mxGeometry>
        </mxCell>
        <mxCell id="l4XwQl3PcMBx6Q5eZ_6Q-235" value="" style="shape=tableRow;horizontal=0;startSize=0;swimlaneHead=0;swimlaneBody=0;fillColor=none;collapsible=0;dropTarget=0;points=[[0,0.5],[1,0.5]];portConstraint=eastwest;top=0;left=0;right=0;bottom=0;html=1;" vertex="1" parent="l4XwQl3PcMBx6Q5eZ_6Q-228">
          <mxGeometry y="90" width="180" height="30" as="geometry" />
        </mxCell>
        <mxCell id="l4XwQl3PcMBx6Q5eZ_6Q-236" value="" style="shape=partialRectangle;connectable=0;fillColor=none;top=0;left=0;bottom=0;right=0;editable=1;overflow=hidden;html=1;whiteSpace=wrap;" vertex="1" parent="l4XwQl3PcMBx6Q5eZ_6Q-235">
          <mxGeometry width="60" height="30" as="geometry">
            <mxRectangle width="60" height="30" as="alternateBounds" />
          </mxGeometry>
        </mxCell>
        <mxCell id="l4XwQl3PcMBx6Q5eZ_6Q-237" value="Recargo" style="shape=partialRectangle;connectable=0;fillColor=none;top=0;left=0;bottom=0;right=0;align=left;spacingLeft=6;overflow=hidden;html=1;whiteSpace=wrap;" vertex="1" parent="l4XwQl3PcMBx6Q5eZ_6Q-235">
          <mxGeometry x="60" width="120" height="30" as="geometry">
            <mxRectangle width="120" height="30" as="alternateBounds" />
          </mxGeometry>
        </mxCell>
        <mxCell id="l4XwQl3PcMBx6Q5eZ_6Q-238" style="edgeStyle=orthogonalEdgeStyle;rounded=0;orthogonalLoop=1;jettySize=auto;html=1;exitX=0;exitY=0.5;exitDx=0;exitDy=0;entryX=1;entryY=0.5;entryDx=0;entryDy=0;" edge="1" parent="1" source="l4XwQl3PcMBx6Q5eZ_6Q-229" target="l4XwQl3PcMBx6Q5eZ_6Q-156">
          <mxGeometry relative="1" as="geometry" />
        </mxCell>
      </root>
    </mxGraphModel>
  </diagram>
</mxfile>
